<svg width="24" height="25" viewBox="0 0 24 25" fill="none" xmlns="http://www.w3.org/2000/svg">
<path d="M11 3.29996H13C13.5523 3.29996 14 3.74767 14 4.29996V4.86874C14 5.29654 14.2871 5.66821 14.6822 5.83224C15.0775 5.99634 15.5377 5.9338 15.8403 5.63119L16.2426 5.22887C16.6331 4.83834 17.2663 4.83834 17.6568 5.22887L19.071 6.64308C19.4616 7.0336 19.4615 7.66677 19.071 8.05729L18.6688 8.45956C18.3661 8.76219 18.3036 9.22243 18.4677 9.6177C18.6317 10.0128 19.0034 10.3 19.4313 10.3L20 10.3C20.5523 10.3 21 10.7477 21 11.3V13.3C21 13.8522 20.5523 14.3 20 14.3H19.4312C19.0034 14.3 18.6318 14.5871 18.4677 14.9822C18.3036 15.3775 18.3661 15.8377 18.6688 16.1403L19.071 16.5426C19.4616 16.9331 19.4616 17.5663 19.071 17.9568L17.6568 19.371C17.2663 19.7615 16.6331 19.7615 16.2426 19.371L15.8403 18.9687C15.5377 18.6661 15.0775 18.6036 14.6822 18.7677C14.2871 18.9317 14 19.3034 14 19.7312V20.3C14 20.8522 13.5523 21.3 13 21.3H11C10.4477 21.3 10 20.8522 10 20.3V19.7312C10 19.3034 9.71287 18.9317 9.31774 18.7677C8.92247 18.6035 8.46223 18.6661 8.1596 18.9687L7.75732 19.371C7.36679 19.7615 6.73363 19.7615 6.34311 19.371L4.92889 17.9568C4.53837 17.5663 4.53837 16.9331 4.92889 16.5426L5.33123 16.1402C5.63384 15.8376 5.69638 15.3774 5.53228 14.9822C5.36825 14.5871 4.99659 14.3 4.56879 14.3H4C3.44772 14.3 3 13.8522 3 13.3V11.3C3 10.7477 3.44772 10.3 4 10.3L4.56877 10.3C4.99658 10.3 5.36825 10.0128 5.53229 9.61772C5.6964 9.22246 5.63386 8.76224 5.33123 8.45962L4.92891 8.0573C4.53838 7.66677 4.53838 7.03361 4.92891 6.64308L6.34312 5.22887C6.73365 4.83834 7.36681 4.83834 7.75734 5.22887L8.15966 5.63119C8.46228 5.93381 8.9225 5.99636 9.31776 5.83225C9.71288 5.66821 10 5.29653 10 4.86872V4.29996C10 3.74767 10.4477 3.29996 11 3.29996Z" stroke="#747476" stroke-width="1.5"/>
<path d="M14 12.3C14 13.4045 13.1046 14.3 12 14.3C10.8954 14.3 10 13.4045 10 12.3C10 11.1954 10.8954 10.3 12 10.3C13.1046 10.3 14 11.1954 14 12.3Z" stroke="#747476" stroke-width="1.5"/>
</svg>
