<svg width="86" height="31" viewBox="0 0 86 31" fill="none" xmlns="http://www.w3.org/2000/svg">
<path d="M4.7 1.58V10.796H13.084V1.74H17.756V23.5H13.084V14.54H4.7V23.5H0.0280001V1.74L4.7 1.58ZM26.9685 7.532C29.4005 7.532 31.2032 8.332 32.3765 9.932C33.5498 11.532 34.1365 13.4307 34.1365 15.628V17.164H24.0245C24.2378 18.0387 24.6752 18.7213 25.3365 19.212C26.0192 19.7027 26.8832 19.948 27.9285 19.948C28.6325 19.948 29.2832 19.8733 29.8805 19.724C30.4992 19.5533 31.1605 19.2973 31.8645 18.956L33.2405 22.284C32.4512 22.8813 31.4912 23.2973 30.3605 23.532C29.2298 23.7667 28.3338 23.884 27.6725 23.884C25.0485 23.884 22.9365 23.18 21.3365 21.772C19.7578 20.3427 18.9685 18.3373 18.9685 15.756C18.9685 13.2387 19.7045 11.244 21.1765 9.772C22.6485 8.27867 24.5792 7.532 26.9685 7.532ZM26.8405 11.436C26.1152 11.436 25.4965 11.6707 24.9845 12.14C24.4725 12.6093 24.1418 13.2707 23.9925 14.124H29.6565C29.5072 13.3133 29.1978 12.6627 28.7285 12.172C28.2592 11.6813 27.6298 11.436 26.8405 11.436ZM39.5078 0.907999V23.5H34.8358V1.26L39.5078 0.907999ZM51.902 15.628C51.902 14.5187 51.646 13.5267 51.134 12.652C50.622 11.7773 49.6833 11.34 48.318 11.34C47.8913 11.34 47.4647 11.4147 47.038 11.564C46.6113 11.7133 46.2167 11.8947 45.854 12.108V19.02C46.238 19.2973 46.6647 19.5213 47.134 19.692C47.6033 19.8627 48.0513 19.948 48.478 19.948C49.7367 19.948 50.622 19.4787 51.134 18.54C51.646 17.58 51.902 16.6093 51.902 15.628ZM41.182 8.012H43.55L44.478 9.228C45.2033 8.652 46.0247 8.204 46.942 7.884C47.8593 7.564 48.7233 7.404 49.534 7.404C51.902 7.404 53.694 8.19333 54.91 9.772C56.126 11.3293 56.734 13.2707 56.734 15.596C56.734 17.9427 56.1153 19.9053 54.878 21.484C53.662 23.0627 51.8487 23.852 49.438 23.852C48.9047 23.852 48.318 23.7667 47.678 23.596C47.038 23.4253 46.43 23.2013 45.854 22.924V30.188L41.182 30.508V8.012ZM64.6323 7.532C67.0643 7.532 68.8669 8.332 70.0403 9.932C71.2136 11.532 71.8003 13.4307 71.8003 15.628V17.164H61.6883C61.9016 18.0387 62.3389 18.7213 63.0003 19.212C63.6829 19.7027 64.5469 19.948 65.5923 19.948C66.2963 19.948 66.9469 19.8733 67.5443 19.724C68.1629 19.5533 68.8243 19.2973 69.5283 18.956L70.9043 22.284C70.1149 22.8813 69.1549 23.2973 68.0243 23.532C66.8936 23.7667 65.9976 23.884 65.3363 23.884C62.7123 23.884 60.6003 23.18 59.0003 21.772C57.4216 20.3427 56.6323 18.3373 56.6323 15.756C56.6323 13.2387 57.3683 11.244 58.8403 9.772C60.3123 8.27867 62.2429 7.532 64.6323 7.532ZM64.5043 11.436C63.7789 11.436 63.1603 11.6707 62.6483 12.14C62.1363 12.6093 61.8056 13.2707 61.6563 14.124H67.3203C67.1709 13.3133 66.8616 12.6627 66.3923 12.172C65.9229 11.6813 65.2936 11.436 64.5043 11.436ZM81.0755 7.98L82.0355 11.756C81.3102 11.756 80.4995 11.9267 79.6035 12.268C78.7075 12.6093 77.8542 13.132 77.0435 13.836V23.5H72.3395V8.012H74.7395L76.1475 10.06C76.7875 9.52667 77.5555 9.04667 78.4515 8.62C79.3475 8.19333 80.2222 7.98 81.0755 7.98ZM85.0472 20.972C85.0472 21.6973 84.8019 22.3053 84.3112 22.796C83.8419 23.2653 83.2552 23.5 82.5512 23.5C81.8259 23.5 81.2179 23.2653 80.7272 22.796C80.2366 22.3053 79.9912 21.6973 79.9912 20.972C79.9912 20.2467 80.2366 19.6493 80.7272 19.18C81.2179 18.6893 81.8259 18.444 82.5512 18.444C83.2552 18.444 83.8419 18.6893 84.3112 19.18C84.8019 19.6493 85.0472 20.2467 85.0472 20.972Z" fill="#F75369"/>
</svg>
