<svg
      xmlns="http://www.w3.org/2000/svg"
      width="73"
      height="38"
      fill="none"
      viewBox="0 0 73 38"
    >
      <path
        fill="#F75369"
        d="M7.2 9.08v9.216h8.384V9.24h4.672V31h-4.672v-8.96H7.2V31H2.528V9.24L7.2 9.08zm22.268 5.952c2.433 0 4.235.8 5.409 2.4 1.173 1.6 1.76 3.499 1.76 5.696v1.536H26.523c.214.875.651 1.557 1.313 2.048.682.49 1.546.736 2.591.736.704 0 1.355-.075 1.952-.224.62-.17 1.28-.427 1.984-.768l1.377 3.328c-.79.597-1.75 1.013-2.88 1.248-1.131.235-2.027.352-2.688.352-2.624 0-4.736-.704-6.336-2.112-1.58-1.43-2.369-3.435-2.369-6.016 0-2.517.736-4.512 2.209-5.984 1.471-1.493 3.402-2.24 5.791-2.24zm-.128 3.904c-.725 0-1.343.235-1.855.704-.512.47-.843 1.13-.992 1.984h5.664c-.15-.81-.46-1.461-.928-1.952-.47-.49-1.1-.736-1.889-.736zM42.008 8.408V31h-4.672V8.76l4.672-.352zm12.394 14.72c0-1.11-.256-2.101-.768-2.976s-1.45-1.312-2.816-1.312c-.427 0-.853.075-1.28.224-.427.15-.821.33-1.184.544v6.912c.384.277.81.501 1.28.672.47.17.917.256 1.344.256 1.259 0 2.144-.47 2.656-1.408.512-.96.768-1.93.768-2.912zm-10.72-7.616h2.368l.929 1.216a8.332 8.332 0 012.463-1.344c.917-.32 1.781-.48 2.592-.48 2.368 0 4.16.79 5.376 2.368 1.216 1.557 1.824 3.499 1.824 5.824 0 2.347-.619 4.31-1.856 5.888-1.216 1.579-3.03 2.368-5.44 2.368-.533 0-1.12-.085-1.76-.256-.64-.17-1.248-.395-1.824-.672v7.264l-4.672.32V15.512zm24.922-.032l.96 3.776c-.725 0-1.536.17-2.432.512-.896.341-1.75.864-2.56 1.568V31h-4.704V15.512h2.4l1.408 2.048c.64-.533 1.408-1.013 2.304-1.44.896-.427 1.77-.64 2.624-.64zm3.972 12.992c0 .725-.245 1.333-.736 1.824-.47.47-1.056.704-1.76.704-.725 0-1.333-.235-1.824-.704-.49-.49-.736-1.099-.736-1.824 0-.725.245-1.323.736-1.792.49-.49 1.099-.736 1.824-.736.704 0 1.29.245 1.76.736.49.47.736 1.067.736 1.792z"
      ></path>
    </svg>
