<svg width="478" height="192" viewBox="0 0 478 192" fill="none" xmlns="http://www.w3.org/2000/svg">
<path d="M360.42 42.5746C369.106 48.9745 421.371 70.3835 446.418 80.288L476.703 96.0019L450.989 190C437.132 183.095 406.933 167.943 396.991 162.572C384.562 155.858 348.277 137.858 327.135 137.287C305.993 136.715 276.708 143.286 238.566 151.143C200.424 159 175.567 147.715 167.568 145.286C159.568 142.858 138.997 140.858 121.426 134.572C103.855 128.287 86.7124 122.287 84.9981 121.144C83.2839 120.001 67.4271 101.145 60.8558 96.0019C54.2846 90.8592 43.9991 77.2881 35.4279 67.2883C29.8566 63.5741 13.7141 56.7172 11.7142 55.0029C10.1142 53.6315 12.3808 50.9078 13.7141 49.7173C10.9047 47.6221 4.74291 42.9175 2.57154 40.8604C1.08586 38.1176 3.19057 32.9558 4.42864 30.7178C4.52387 30.0035 5.00005 27.375 6.14288 22.5751C12.0856 4.51842 37.7612 25.1465 49.8561 37.7176C50.8085 38.0986 54.9988 39.2604 64.1415 40.8604C80.2857 34.9125 111.873 48.3384 134.687 58.0352L135.283 58.2885C158.368 61.2599 171.377 68.0978 174.996 71.1454C175.758 71.2406 179.739 71.7739 189.567 73.1453C191.853 40.8604 259.28 42.5746 272.136 40.8604C284.136 32.2892 288.993 31.4321 304.707 28.8607C344.42 17.7181 349.563 34.5748 360.42 42.5746Z" fill="#F75369" stroke="white" stroke-width="2"/>
<path d="M2.14355 25.8599C8.42912 17.5173 17.3337 33.0502 21.0002 41.8595C21.1431 41.8595 21.1717 41.9738 20.1431 42.431C19.1146 42.8881 17.3337 44.6214 16.5718 45.4309L2.14355 25.8599Z" fill="#F75369" stroke="white" stroke-width="2"/>
<path d="M21.0003 43.2885L20.0003 41.2886L19.5717 40.2886L15.2861 42.4314L16.5718 44.2885L17.4289 45.717L17.8575 45.5742L21.0003 43.2885Z" fill="#F75369"/>
<path d="M230.515 60.9334C230.713 69.9016 228.699 82.1689 227.667 87.1816C221.845 90.3259 209.46 91.5563 204.63 89.5057C202.152 84.7208 202.524 62.0271 207.23 58.7461C211.937 55.4651 230.515 55.7385 230.515 60.9334Z" stroke="white" stroke-width="2"/>
<path d="M203.837 95.6908C192.528 91.9872 189.986 73.7779 190.129 65.1362C190.129 56.8803 189.929 45.3221 189.129 65.1362C188.13 89.9039 200.124 95.6908 206.122 98.4685C212.119 101.246 236.966 101.478 245.962 101.478C254.958 101.478 278.376 95.6908 282.803 94.0705C286.344 92.7742 290.085 97.234 291.513 99.6259L294.941 92.6816C292.989 92.8359 287.829 93.052 282.803 92.6816C276.52 92.2187 254.958 98.7 245.962 99.6259C236.966 100.552 217.974 100.32 203.837 95.6908Z" fill="white"/>
<path d="M273.185 62.4185C275.412 67.5578 277.125 80.3376 266.161 90.3422" stroke="white" stroke-width="2" stroke-linecap="round"/>
<path d="M236.138 152.572C223.376 152.667 194.31 149.086 180.139 134.001C172.139 127.715 92.9982 85.716 67.5702 77.1448C47.2279 70.2878 37.9519 66.8593 35.8567 66.0022C36.8091 64.8594 37.3995 61.7737 32.1425 58.5738C25.5713 54.5739 18.1429 50.0026 16.1429 50.0026C14.5429 50.0026 13.0001 50.0026 12.4287 50.0026C17.8095 42.2885 38.1709 30.6031 76.57 45.5741C89.7126 47.7169 114.141 48.574 128.283 56.1453C138.683 56.9453 143.664 57.05 144.854 57.0024" stroke="white" stroke-width="2"/>
<path d="M98.1411 127.715C97.284 127.572 96.3411 114.315 94.8555 113.287" stroke="white" stroke-width="2"/>
<path d="M12.8569 40.288C10.9522 39.2881 5.42849 38.8881 2 41.288" stroke="white" stroke-width="2"/>
<path d="M279.181 96.338C272.329 99.079 261.251 106.731 256.568 110.214L271.986 113.983C287.918 108.501 316.63 96.1667 304.022 90.6847C288.261 83.8323 287.747 92.9118 279.181 96.338Z" fill="#F75369"/>
<circle cx="432.507" cy="173.813" r="0.435547" transform="rotate(84.9901 432.507 173.813)" fill="white"/>
<circle cx="430.49" cy="175.739" r="0.435547" transform="rotate(84.9901 430.49 175.739)" fill="white"/>
<circle cx="428.473" cy="177.664" r="0.435547" transform="rotate(84.9901 428.473 177.664)" fill="white"/>
<circle cx="426.266" cy="177.421" r="0.435547" transform="rotate(84.9901 426.266 177.421)" fill="white"/>
<circle cx="424.644" cy="178.875" r="0.435547" transform="rotate(84.9901 424.644 178.875)" fill="white"/>
<circle cx="426.851" cy="179.118" r="0.435547" transform="rotate(84.9901 426.851 179.118)" fill="white"/>
<circle cx="425.132" cy="174.46" r="0.435547" transform="rotate(84.9901 425.132 174.46)" fill="white"/>
<circle cx="426.357" cy="173.478" r="0.435547" transform="rotate(84.9901 426.357 173.478)" fill="white"/>
<circle cx="427.583" cy="172.496" r="0.435547" transform="rotate(84.9901 427.583 172.496)" fill="white"/>
<circle cx="428.298" cy="170.684" r="0.435547" transform="rotate(84.9901 428.298 170.684)" fill="white"/>
<circle cx="426.449" cy="169.535" r="0.435547" transform="rotate(84.9901 426.449 169.535)" fill="white"/>
<circle cx="427.635" cy="168.118" r="0.435547" transform="rotate(84.9901 427.635 168.118)" fill="white"/>
<circle cx="429.013" cy="168.872" r="0.435547" transform="rotate(84.9901 429.013 168.872)" fill="white"/>
<circle cx="430.864" cy="170.022" r="0.435547" transform="rotate(84.9901 430.864 170.022)" fill="white"/>
<circle cx="427.339" cy="174.703" r="0.435547" transform="rotate(84.9901 427.339 174.703)" fill="white"/>
<circle cx="428.961" cy="173.249" r="0.435547" transform="rotate(84.9901 428.961 173.249)" fill="white"/>
<circle cx="430.583" cy="171.795" r="0.435547" transform="rotate(84.9901 430.583 171.795)" fill="white"/>
<circle cx="433.148" cy="171.134" r="0.435547" transform="rotate(84.9901 433.148 171.134)" fill="white"/>
<circle cx="435.864" cy="172.207" r="0.435547" transform="rotate(84.9901 435.864 172.207)" fill="white"/>
<circle cx="435.148" cy="174.018" r="0.435547" transform="rotate(84.9901 435.148 174.018)" fill="white"/>
<circle cx="434.433" cy="175.83" r="0.435547" transform="rotate(84.9901 434.433 175.83)" fill="white"/>
<circle cx="434.421" cy="167.205" r="0.435547" transform="rotate(129.135 434.421 167.205)" fill="white"/>
<circle cx="431.632" cy="167.182" r="0.435547" transform="rotate(129.135 431.632 167.182)" fill="white"/>
<circle cx="428.844" cy="167.159" r="0.435547" transform="rotate(129.135 428.844 167.159)" fill="white"/>
<circle cx="427.43" cy="165.447" r="0.435547" transform="rotate(129.135 427.43 165.447)" fill="white"/>
<circle cx="425.253" cy="165.36" r="0.435547" transform="rotate(129.135 425.253 165.36)" fill="white"/>
<circle cx="426.667" cy="167.073" r="0.435547" transform="rotate(129.135 426.667 167.073)" fill="white"/>
<circle cx="428.678" cy="162.532" r="0.435547" transform="rotate(129.135 428.678 162.532)" fill="white"/>
<circle cx="430.241" cy="162.681" r="0.435547" transform="rotate(129.135 430.241 162.681)" fill="white"/>
<circle cx="431.804" cy="162.83" r="0.435547" transform="rotate(129.135 431.804 162.83)" fill="white"/>
<circle cx="433.58" cy="162.028" r="0.435547" transform="rotate(129.135 433.58 162.028)" fill="white"/>
<circle cx="433.053" cy="159.915" r="0.435547" transform="rotate(129.135 433.053 159.915)" fill="white"/>
<circle cx="434.891" cy="159.727" r="0.435547" transform="rotate(129.135 434.891 159.727)" fill="white"/>
<circle cx="435.355" cy="161.227" r="0.435547" transform="rotate(129.135 435.355 161.227)" fill="white"/>
<circle cx="435.881" cy="163.34" r="0.435547" transform="rotate(129.135 435.881 163.34)" fill="white"/>
<circle cx="430.092" cy="164.245" r="0.435547" transform="rotate(129.135 430.092 164.245)" fill="white"/>
<circle cx="432.268" cy="164.331" r="0.435547" transform="rotate(129.135 432.268 164.331)" fill="white"/>
<circle cx="434.444" cy="164.417" r="0.435547" transform="rotate(129.135 434.444 164.417)" fill="white"/>
<circle cx="436.746" cy="165.728" r="0.435547" transform="rotate(129.135 436.746 165.728)" fill="white"/>
<circle cx="437.948" cy="168.391" r="0.435547" transform="rotate(129.135 437.948 168.391)" fill="white"/>
<circle cx="436.173" cy="169.192" r="0.435547" transform="rotate(129.135 436.173 169.192)" fill="white"/>
<circle cx="434.398" cy="169.994" r="0.435547" transform="rotate(129.135 434.398 169.994)" fill="white"/>
<circle cx="418.828" cy="176.928" r="0.435547" transform="rotate(-178.339 418.828 176.928)" fill="white"/>
<circle cx="417.15" cy="174.7" r="0.435547" transform="rotate(-178.339 417.15 174.7)" fill="white"/>
<circle cx="415.472" cy="172.473" r="0.435547" transform="rotate(-178.339 415.472 172.473)" fill="white"/>
<circle cx="415.97" cy="170.309" r="0.435547" transform="rotate(-178.339 415.97 170.309)" fill="white"/>
<circle cx="414.714" cy="168.53" r="0.435547" transform="rotate(-178.339 414.714 168.53)" fill="white"/>
<circle cx="414.216" cy="170.694" r="0.435547" transform="rotate(-178.339 414.216 170.694)" fill="white"/>
<circle cx="419.043" cy="169.527" r="0.435547" transform="rotate(-178.339 419.043 169.527)" fill="white"/>
<circle cx="419.875" cy="170.858" r="0.435547" transform="rotate(-178.339 419.875 170.858)" fill="white"/>
<circle cx="420.709" cy="172.189" r="0.435547" transform="rotate(-178.339 420.709 172.189)" fill="white"/>
<circle cx="422.424" cy="173.11" r="0.435547" transform="rotate(-178.339 422.424 173.11)" fill="white"/>
<circle cx="423.78" cy="171.407" r="0.435547" transform="rotate(-178.339 423.78 171.407)" fill="white"/>
<circle cx="425.05" cy="172.751" r="0.435547" transform="rotate(-178.339 425.05 172.751)" fill="white"/>
<circle cx="424.141" cy="174.032" r="0.435547" transform="rotate(-178.339 424.141 174.032)" fill="white"/>
<circle cx="422.784" cy="175.735" r="0.435547" transform="rotate(-178.339 422.784 175.735)" fill="white"/>
<circle cx="418.544" cy="171.691" r="0.435547" transform="rotate(-178.339 418.544 171.691)" fill="white"/>
<circle cx="419.8" cy="173.47" r="0.435547" transform="rotate(-178.339 419.8 173.47)" fill="white"/>
<circle cx="421.056" cy="175.25" r="0.435547" transform="rotate(-178.339 421.056 175.25)" fill="white"/>
<circle cx="421.414" cy="177.874" r="0.435547" transform="rotate(-178.339 421.414 177.874)" fill="white"/>
<circle cx="420.034" cy="180.449" r="0.435547" transform="rotate(-178.339 420.034 180.449)" fill="white"/>
<circle cx="418.317" cy="179.528" r="0.435547" transform="rotate(-178.339 418.317 179.528)" fill="white"/>
<circle cx="416.602" cy="178.606" r="0.435547" transform="rotate(-178.339 416.602 178.606)" fill="white"/>
<circle cx="410.134" cy="160.344" r="0.435547" transform="rotate(-40.4598 410.134 160.344)" fill="white"/>
<circle cx="412.872" cy="160.871" r="0.435547" transform="rotate(-40.4598 412.872 160.871)" fill="white"/>
<circle cx="415.61" cy="161.396" r="0.435547" transform="rotate(-40.4598 415.61 161.396)" fill="white"/>
<circle cx="416.692" cy="163.336" r="0.435547" transform="rotate(-40.4598 416.692 163.336)" fill="white"/>
<circle cx="418.817" cy="163.813" r="0.435547" transform="rotate(-40.4598 418.817 163.813)" fill="white"/>
<circle cx="417.735" cy="161.874" r="0.435547" transform="rotate(-40.4598 417.735 161.874)" fill="white"/>
<circle cx="414.938" cy="165.977" r="0.435547" transform="rotate(-40.4598 414.938 165.977)" fill="white"/>
<circle cx="413.427" cy="165.549" r="0.435547" transform="rotate(-40.4598 413.427 165.549)" fill="white"/>
<circle cx="411.917" cy="165.12" r="0.435547" transform="rotate(-40.4598 411.917 165.12)" fill="white"/>
<circle cx="410.025" cy="165.587" r="0.435547" transform="rotate(-40.4598 410.025 165.587)" fill="white"/>
<circle cx="410.162" cy="167.76" r="0.435547" transform="rotate(-40.4598 410.162 167.76)" fill="white"/>
<circle cx="408.321" cy="167.615" r="0.435547" transform="rotate(-40.4598 408.321 167.615)" fill="white"/>
<circle cx="408.135" cy="166.055" r="0.435547" transform="rotate(-40.4598 408.135 166.055)" fill="white"/>
<circle cx="407.998" cy="163.882" r="0.435547" transform="rotate(-40.4598 407.998 163.882)" fill="white"/>
<circle cx="413.856" cy="164.038" r="0.435547" transform="rotate(-40.4598 413.856 164.038)" fill="white"/>
<circle cx="411.731" cy="163.56" r="0.435547" transform="rotate(-40.4598 411.731 163.56)" fill="white"/>
<circle cx="409.606" cy="163.082" r="0.435547" transform="rotate(-40.4598 409.606 163.082)" fill="white"/>
<circle cx="407.579" cy="161.377" r="0.435547" transform="rotate(-40.4598 407.579 161.377)" fill="white"/>
<circle cx="406.878" cy="158.541" r="0.435547" transform="rotate(-40.4598 406.878 158.541)" fill="white"/>
<circle cx="408.768" cy="158.073" r="0.435547" transform="rotate(-40.4598 408.768 158.073)" fill="white"/>
<circle cx="410.659" cy="157.605" r="0.435547" transform="rotate(-40.4598 410.659 157.605)" fill="white"/>
<circle cx="403.639" cy="162.616" r="0.435547" transform="rotate(3.68517 403.639 162.616)" fill="white"/>
<circle cx="405.238" cy="164.903" r="0.435547" transform="rotate(3.68517 405.238 164.903)" fill="white"/>
<circle cx="406.836" cy="167.187" r="0.435547" transform="rotate(3.68517 406.836 167.187)" fill="white"/>
<circle cx="406.261" cy="169.332" r="0.435547" transform="rotate(3.68517 406.261 169.332)" fill="white"/>
<circle cx="407.454" cy="171.155" r="0.435547" transform="rotate(3.68517 407.454 171.155)" fill="white"/>
<circle cx="408.029" cy="169.01" r="0.435547" transform="rotate(3.68517 408.029 169.01)" fill="white"/>
<circle cx="403.163" cy="170.006" r="0.435547" transform="rotate(3.68517 403.163 170.006)" fill="white"/>
<circle cx="402.377" cy="168.646" r="0.435547" transform="rotate(3.68517 402.377 168.646)" fill="white"/>
<circle cx="401.591" cy="167.286" r="0.435547" transform="rotate(3.68517 401.591 167.286)" fill="white"/>
<circle cx="399.909" cy="166.304" r="0.435547" transform="rotate(3.68517 399.909 166.304)" fill="white"/>
<circle cx="398.494" cy="167.959" r="0.435547" transform="rotate(3.68517 398.494 167.959)" fill="white"/>
<circle cx="397.274" cy="166.571" r="0.435547" transform="rotate(3.68517 397.274 166.571)" fill="white"/>
<circle cx="398.227" cy="165.323" r="0.435547" transform="rotate(3.68517 398.227 165.323)" fill="white"/>
<circle cx="399.643" cy="163.669" r="0.435547" transform="rotate(3.68517 399.643 163.669)" fill="white"/>
<circle cx="403.738" cy="167.861" r="0.435547" transform="rotate(3.68517 403.738 167.861)" fill="white"/>
<circle cx="402.546" cy="166.038" r="0.435547" transform="rotate(3.68517 402.546 166.038)" fill="white"/>
<circle cx="401.354" cy="164.216" r="0.435547" transform="rotate(3.68517 401.354 164.216)" fill="white"/>
<circle cx="401.086" cy="161.579" r="0.435547" transform="rotate(3.68517 401.086 161.579)" fill="white"/>
<circle cx="402.558" cy="159.056" r="0.435547" transform="rotate(3.68517 402.558 159.056)" fill="white"/>
<circle cx="404.242" cy="160.036" r="0.435547" transform="rotate(3.68517 404.242 160.036)" fill="white"/>
<circle cx="405.924" cy="161.018" r="0.435547" transform="rotate(3.68517 405.924 161.018)" fill="white"/>
<circle cx="420.602" cy="169.681" r="0.435547" transform="rotate(56.2108 420.602 169.681)" fill="white"/>
<circle cx="419.761" cy="172.34" r="0.435547" transform="rotate(56.2108 419.761 172.34)" fill="white"/>
<circle cx="418.92" cy="174.999" r="0.435547" transform="rotate(56.2108 418.92 174.999)" fill="white"/>
<circle cx="416.867" cy="175.848" r="0.435547" transform="rotate(56.2108 416.867 175.848)" fill="white"/>
<circle cx="416.147" cy="177.903" r="0.435547" transform="rotate(56.2108 416.147 177.903)" fill="white"/>
<circle cx="418.199" cy="177.054" r="0.435547" transform="rotate(56.2108 418.199 177.054)" fill="white"/>
<circle cx="414.449" cy="173.799" r="0.435547" transform="rotate(56.2108 414.449 173.799)" fill="white"/>
<circle cx="415.05" cy="172.348" r="0.435547" transform="rotate(56.2108 415.05 172.348)" fill="white"/>
<circle cx="415.651" cy="170.898" r="0.435547" transform="rotate(56.2108 415.651 170.898)" fill="white"/>
<circle cx="415.407" cy="168.966" r="0.435547" transform="rotate(56.2108 415.407 168.966)" fill="white"/>
<circle cx="413.232" cy="168.848" r="0.435547" transform="rotate(56.2108 413.232 168.848)" fill="white"/>
<circle cx="413.591" cy="167.036" r="0.435547" transform="rotate(56.2108 413.591 167.036)" fill="white"/>
<circle cx="415.161" cy="167.033" r="0.435547" transform="rotate(56.2108 415.161 167.033)" fill="white"/>
<circle cx="417.335" cy="167.15" r="0.435547" transform="rotate(56.2108 417.335 167.15)" fill="white"/>
<circle cx="416.501" cy="172.95" r="0.435547" transform="rotate(56.2108 416.501 172.95)" fill="white"/>
<circle cx="417.221" cy="170.895" r="0.435547" transform="rotate(56.2108 417.221 170.895)" fill="white"/>
<circle cx="417.943" cy="168.841" r="0.435547" transform="rotate(56.2108 417.943 168.841)" fill="white"/>
<circle cx="419.872" cy="167.025" r="0.435547" transform="rotate(56.2108 419.872 167.025)" fill="white"/>
<circle cx="422.772" cy="166.657" r="0.435547" transform="rotate(56.2108 422.772 166.657)" fill="white"/>
<circle cx="423.015" cy="168.59" r="0.435547" transform="rotate(56.2108 423.015 168.59)" fill="white"/>
<circle cx="423.26" cy="170.522" r="0.435547" transform="rotate(56.2108 423.26 170.522)" fill="white"/>
<circle cx="233.478" cy="147.486" r="0.435547" transform="rotate(-84.31 233.478 147.486)" fill="white"/>
<circle cx="235.816" cy="145.968" r="0.435547" transform="rotate(-84.31 235.816 145.968)" fill="white"/>
<circle cx="238.157" cy="144.451" r="0.435547" transform="rotate(-84.31 238.157 144.451)" fill="white"/>
<circle cx="240.28" cy="145.1" r="0.435547" transform="rotate(-84.31 240.28 145.1)" fill="white"/>
<circle cx="242.144" cy="143.973" r="0.435547" transform="rotate(-84.31 242.144 143.973)" fill="white"/>
<circle cx="240.02" cy="143.324" r="0.435547" transform="rotate(-84.31 240.02 143.324)" fill="white"/>
<circle cx="240.845" cy="148.22" r="0.435547" transform="rotate(-84.31 240.845 148.22)" fill="white"/>
<circle cx="239.458" cy="148.957" r="0.435547" transform="rotate(-84.31 239.458 148.957)" fill="white"/>
<circle cx="238.072" cy="149.695" r="0.435547" transform="rotate(-84.31 238.072 149.695)" fill="white"/>
<circle cx="237.032" cy="151.342" r="0.435547" transform="rotate(-84.31 237.032 151.342)" fill="white"/>
<circle cx="238.637" cy="152.815" r="0.435547" transform="rotate(-84.31 238.637 152.815)" fill="white"/>
<circle cx="237.206" cy="153.986" r="0.435547" transform="rotate(-84.31 237.206 153.986)" fill="white"/>
<circle cx="235.993" cy="152.989" r="0.435547" transform="rotate(-84.31 235.993 152.989)" fill="white"/>
<circle cx="234.388" cy="151.516" r="0.435547" transform="rotate(-84.31 234.388 151.516)" fill="white"/>
<circle cx="238.721" cy="147.571" r="0.435547" transform="rotate(-84.31 238.721 147.571)" fill="white"/>
<circle cx="236.857" cy="148.699" r="0.435547" transform="rotate(-84.31 236.857 148.699)" fill="white"/>
<circle cx="234.994" cy="149.826" r="0.435547" transform="rotate(-84.31 234.994 149.826)" fill="white"/>
<circle cx="232.351" cy="150" r="0.435547" transform="rotate(-84.31 232.351 150)" fill="white"/>
<circle cx="229.88" cy="148.441" r="0.435547" transform="rotate(-84.31 229.88 148.441)" fill="white"/>
<circle cx="230.92" cy="146.794" r="0.435547" transform="rotate(-84.31 230.92 146.794)" fill="white"/>
<circle cx="231.96" cy="145.146" r="0.435547" transform="rotate(-84.31 231.96 145.146)" fill="white"/>
<circle cx="230.372" cy="153.623" r="0.435547" transform="rotate(-40.165 230.372 153.623)" fill="white"/>
<circle cx="233.107" cy="154.164" r="0.435547" transform="rotate(-40.165 233.107 154.164)" fill="white"/>
<circle cx="235.843" cy="154.704" r="0.435547" transform="rotate(-40.165 235.843 154.704)" fill="white"/>
<circle cx="236.915" cy="156.649" r="0.435547" transform="rotate(-40.165 236.915 156.649)" fill="white"/>
<circle cx="239.037" cy="157.138" r="0.435547" transform="rotate(-40.165 239.037 157.138)" fill="white"/>
<circle cx="237.964" cy="155.193" r="0.435547" transform="rotate(-40.165 237.964 155.193)" fill="white"/>
<circle cx="235.146" cy="159.281" r="0.435547" transform="rotate(-40.165 235.146 159.281)" fill="white"/>
<circle cx="233.638" cy="158.844" r="0.435547" transform="rotate(-40.165 233.638 158.844)" fill="white"/>
<circle cx="232.129" cy="158.408" r="0.435547" transform="rotate(-40.165 232.129 158.408)" fill="white"/>
<circle cx="230.237" cy="158.866" r="0.435547" transform="rotate(-40.165 230.237 158.866)" fill="white"/>
<circle cx="230.361" cy="161.041" r="0.435547" transform="rotate(-40.165 230.361 161.041)" fill="white"/>
<circle cx="228.52" cy="160.884" r="0.435547" transform="rotate(-40.165 228.52 160.884)" fill="white"/>
<circle cx="228.343" cy="159.324" r="0.435547" transform="rotate(-40.165 228.343 159.324)" fill="white"/>
<circle cx="228.217" cy="157.15" r="0.435547" transform="rotate(-40.165 228.217 157.15)" fill="white"/>
<circle cx="234.075" cy="157.336" r="0.435547" transform="rotate(-40.165 234.075 157.336)" fill="white"/>
<circle cx="231.952" cy="156.847" r="0.435547" transform="rotate(-40.165 231.952 156.847)" fill="white"/>
<circle cx="229.831" cy="156.359" r="0.435547" transform="rotate(-40.165 229.831 156.359)" fill="white"/>
<circle cx="227.811" cy="154.643" r="0.435547" transform="rotate(-40.165 227.811 154.643)" fill="white"/>
<circle cx="227.125" cy="151.803" r="0.435547" transform="rotate(-40.165 227.125 151.803)" fill="white"/>
<circle cx="229.017" cy="151.345" r="0.435547" transform="rotate(-40.165 229.017 151.345)" fill="white"/>
<circle cx="230.911" cy="150.887" r="0.435547" transform="rotate(-40.165 230.911 150.887)" fill="white"/>
<circle cx="247.496" cy="146.965" r="0.435547" transform="rotate(12.3606 247.496 146.965)" fill="white"/>
<circle cx="248.732" cy="149.465" r="0.435547" transform="rotate(12.3606 248.732 149.465)" fill="white"/>
<circle cx="249.968" cy="151.966" r="0.435547" transform="rotate(12.3606 249.968 151.966)" fill="white"/>
<circle cx="249.075" cy="154" r="0.435547" transform="rotate(12.3606 249.075 154)" fill="white"/>
<circle cx="249.98" cy="155.981" r="0.435547" transform="rotate(12.3606 249.98 155.981)" fill="white"/>
<circle cx="250.871" cy="153.947" r="0.435547" transform="rotate(12.3606 250.871 153.947)" fill="white"/>
<circle cx="245.911" cy="154.198" r="0.435547" transform="rotate(12.3606 245.911 154.198)" fill="white"/>
<circle cx="245.34" cy="152.735" r="0.435547" transform="rotate(12.3606 245.34 152.735)" fill="white"/>
<circle cx="244.769" cy="151.272" r="0.435547" transform="rotate(12.3606 244.769 151.272)" fill="white"/>
<circle cx="243.254" cy="150.048" r="0.435547" transform="rotate(12.3606 243.254 150.048)" fill="white"/>
<circle cx="241.604" cy="151.47" r="0.435547" transform="rotate(12.3606 241.604 151.47)" fill="white"/>
<circle cx="240.608" cy="149.915" r="0.435547" transform="rotate(12.3606 240.608 149.915)" fill="white"/>
<circle cx="241.738" cy="148.824" r="0.435547" transform="rotate(12.3606 241.738 148.824)" fill="white"/>
<circle cx="243.389" cy="147.402" r="0.435547" transform="rotate(12.3606 243.389 147.402)" fill="white"/>
<circle cx="246.803" cy="152.164" r="0.435547" transform="rotate(12.3606 246.803 152.164)" fill="white"/>
<circle cx="245.901" cy="150.183" r="0.435547" transform="rotate(12.3606 245.901 150.183)" fill="white"/>
<circle cx="244.996" cy="148.201" r="0.435547" transform="rotate(12.3606 244.996 148.201)" fill="white"/>
<circle cx="245.13" cy="145.555" r="0.435547" transform="rotate(12.3606 245.13 145.555)" fill="white"/>
<circle cx="246.967" cy="143.282" r="0.435547" transform="rotate(12.3606 246.967 143.282)" fill="white"/>
<circle cx="248.482" cy="144.506" r="0.435547" transform="rotate(12.3606 248.482 144.506)" fill="white"/>
<circle cx="249.997" cy="145.73" r="0.435547" transform="rotate(12.3606 249.997 145.73)" fill="white"/>
<circle cx="252.965" cy="164.876" r="0.435547" transform="rotate(150.24 252.965 164.876)" fill="white"/>
<circle cx="250.372" cy="163.851" r="0.435547" transform="rotate(150.24 250.372 163.851)" fill="white"/>
<circle cx="247.778" cy="162.824" r="0.435547" transform="rotate(150.24 247.778 162.824)" fill="white"/>
<circle cx="247.076" cy="160.718" r="0.435547" transform="rotate(150.24 247.076 160.718)" fill="white"/>
<circle cx="245.076" cy="159.854" r="0.435547" transform="rotate(150.24 245.076 159.854)" fill="white"/>
<circle cx="245.779" cy="161.961" r="0.435547" transform="rotate(150.24 245.779 161.961)" fill="white"/>
<circle cx="249.289" cy="158.448" r="0.435547" transform="rotate(150.24 249.289 158.448)" fill="white"/>
<circle cx="250.695" cy="159.15" r="0.435547" transform="rotate(150.24 250.695 159.15)" fill="white"/>
<circle cx="252.098" cy="159.852" r="0.435547" transform="rotate(150.24 252.098 159.852)" fill="white"/>
<circle cx="254.043" cy="159.744" r="0.435547" transform="rotate(150.24 254.043 159.744)" fill="white"/>
<circle cx="254.313" cy="157.583" r="0.435547" transform="rotate(150.24 254.313 157.583)" fill="white"/>
<circle cx="256.096" cy="158.068" r="0.435547" transform="rotate(150.24 256.096 158.068)" fill="white"/>
<circle cx="255.989" cy="159.635" r="0.435547" transform="rotate(150.24 255.989 159.635)" fill="white"/>
<circle cx="255.719" cy="161.796" r="0.435547" transform="rotate(150.24 255.719 161.796)" fill="white"/>
<circle cx="249.993" cy="160.555" r="0.435547" transform="rotate(150.24 249.993 160.555)" fill="white"/>
<circle cx="251.991" cy="161.419" r="0.435547" transform="rotate(150.24 251.991 161.419)" fill="white"/>
<circle cx="253.99" cy="162.283" r="0.435547" transform="rotate(150.24 253.99 162.283)" fill="white"/>
<circle cx="255.665" cy="164.335" r="0.435547" transform="rotate(150.24 255.665 164.335)" fill="white"/>
<circle cx="255.828" cy="167.252" r="0.435547" transform="rotate(150.24 255.828 167.252)" fill="white"/>
<circle cx="253.883" cy="167.361" r="0.435547" transform="rotate(150.24 253.883 167.361)" fill="white"/>
<circle cx="251.938" cy="167.469" r="0.435547" transform="rotate(150.24 251.938 167.469)" fill="white"/>
<circle cx="259.764" cy="163.847" r="0.435547" transform="rotate(-165.615 259.764 163.847)" fill="white"/>
<circle cx="258.619" cy="161.305" r="0.435547" transform="rotate(-165.615 258.619 161.305)" fill="white"/>
<circle cx="257.472" cy="158.762" r="0.435547" transform="rotate(-165.615 257.472 158.762)" fill="white"/>
<circle cx="258.434" cy="156.761" r="0.435547" transform="rotate(-165.615 258.434 156.761)" fill="white"/>
<circle cx="257.601" cy="154.75" r="0.435547" transform="rotate(-165.615 257.601 154.75)" fill="white"/>
<circle cx="256.638" cy="156.751" r="0.435547" transform="rotate(-165.615 256.638 156.751)" fill="white"/>
<circle cx="261.604" cy="156.675" r="0.435547" transform="rotate(-165.615 261.604 156.675)" fill="white"/>
<circle cx="262.123" cy="158.157" r="0.435547" transform="rotate(-165.615 262.123 158.157)" fill="white"/>
<circle cx="262.642" cy="159.639" r="0.435547" transform="rotate(-165.615 262.642 159.639)" fill="white"/>
<circle cx="264.114" cy="160.916" r="0.435547" transform="rotate(-165.615 264.114 160.916)" fill="white"/>
<circle cx="265.812" cy="159.553" r="0.435547" transform="rotate(-165.615 265.812 159.553)" fill="white"/>
<circle cx="266.753" cy="161.144" r="0.435547" transform="rotate(-165.615 266.753 161.144)" fill="white"/>
<circle cx="265.585" cy="162.193" r="0.435547" transform="rotate(-165.615 265.585 162.193)" fill="white"/>
<circle cx="263.887" cy="163.556" r="0.435547" transform="rotate(-165.615 263.887 163.556)" fill="white"/>
<circle cx="260.64" cy="158.676" r="0.435547" transform="rotate(-165.615 260.64 158.676)" fill="white"/>
<circle cx="261.474" cy="160.689" r="0.435547" transform="rotate(-165.615 261.474 160.689)" fill="white"/>
<circle cx="262.307" cy="162.701" r="0.435547" transform="rotate(-165.615 262.307 162.701)" fill="white"/>
<circle cx="262.079" cy="165.341" r="0.435547" transform="rotate(-165.615 262.079 165.341)" fill="white"/>
<circle cx="260.165" cy="167.547" r="0.435547" transform="rotate(-165.615 260.165 167.547)" fill="white"/>
<circle cx="258.693" cy="166.271" r="0.435547" transform="rotate(-165.615 258.693 166.271)" fill="white"/>
<circle cx="257.221" cy="164.994" r="0.435547" transform="rotate(-165.615 257.221 164.994)" fill="white"/>
<circle cx="244.41" cy="153.756" r="0.435547" transform="rotate(-113.089 244.41 153.756)" fill="white"/>
<circle cx="245.728" cy="151.3" r="0.435547" transform="rotate(-113.089 245.728 151.3)" fill="white"/>
<circle cx="247.049" cy="148.843" r="0.435547" transform="rotate(-113.089 247.049 148.843)" fill="white"/>
<circle cx="249.224" cy="148.389" r="0.435547" transform="rotate(-113.089 249.224 148.389)" fill="white"/>
<circle cx="250.314" cy="146.504" r="0.435547" transform="rotate(-113.089 250.314 146.504)" fill="white"/>
<circle cx="248.139" cy="146.957" r="0.435547" transform="rotate(-113.089 248.139 146.957)" fill="white"/>
<circle cx="251.22" cy="150.852" r="0.435547" transform="rotate(-113.089 251.22 150.852)" fill="white"/>
<circle cx="250.36" cy="152.166" r="0.435547" transform="rotate(-113.089 250.36 152.166)" fill="white"/>
<circle cx="249.499" cy="153.48" r="0.435547" transform="rotate(-113.089 249.499 153.48)" fill="white"/>
<circle cx="249.38" cy="155.425" r="0.435547" transform="rotate(-113.089 249.38 155.425)" fill="white"/>
<circle cx="251.495" cy="155.943" r="0.435547" transform="rotate(-113.089 251.495 155.943)" fill="white"/>
<circle cx="250.806" cy="157.658" r="0.435547" transform="rotate(-113.089 250.806 157.658)" fill="white"/>
<circle cx="249.263" cy="157.368" r="0.435547" transform="rotate(-113.089 249.263 157.368)" fill="white"/>
<circle cx="247.149" cy="156.85" r="0.435547" transform="rotate(-113.089 247.149 156.85)" fill="white"/>
<circle cx="249.045" cy="151.306" r="0.435547" transform="rotate(-113.089 249.045 151.306)" fill="white"/>
<circle cx="247.956" cy="153.191" r="0.435547" transform="rotate(-113.089 247.956 153.191)" fill="white"/>
<circle cx="246.866" cy="155.076" r="0.435547" transform="rotate(-113.089 246.866 155.076)" fill="white"/>
<circle cx="244.632" cy="156.502" r="0.435547" transform="rotate(-113.089 244.632 156.502)" fill="white"/>
<circle cx="241.716" cy="156.325" r="0.435547" transform="rotate(-113.089 241.716 156.325)" fill="white"/>
<circle cx="241.834" cy="154.381" r="0.435547" transform="rotate(-113.089 241.834 154.381)" fill="white"/>
<circle cx="241.952" cy="152.437" r="0.435547" transform="rotate(-113.089 241.952 152.437)" fill="white"/>
<circle cx="138.915" cy="51.5512" r="0.435547" transform="rotate(-84.31 138.915 51.5512)" fill="white"/>
<circle cx="141.254" cy="50.0331" r="0.435547" transform="rotate(-84.31 141.254 50.0331)" fill="white"/>
<circle cx="143.595" cy="48.5155" r="0.435547" transform="rotate(-84.31 143.595 48.5155)" fill="white"/>
<circle cx="145.718" cy="49.165" r="0.435547" transform="rotate(-84.31 145.718 49.165)" fill="white"/>
<circle cx="147.581" cy="48.037" r="0.435547" transform="rotate(-84.31 147.581 48.037)" fill="white"/>
<circle cx="145.457" cy="47.3881" r="0.435547" transform="rotate(-84.31 145.457 47.3881)" fill="white"/>
<circle cx="146.282" cy="52.2846" r="0.435547" transform="rotate(-84.31 146.282 52.2846)" fill="white"/>
<circle cx="144.896" cy="53.0224" r="0.435547" transform="rotate(-84.31 144.896 53.0224)" fill="white"/>
<circle cx="143.51" cy="53.7592" r="0.435547" transform="rotate(-84.31 143.51 53.7592)" fill="white"/>
<circle cx="142.47" cy="55.4067" r="0.435547" transform="rotate(-84.31 142.47 55.4067)" fill="white"/>
<circle cx="144.073" cy="56.8793" r="0.435547" transform="rotate(-84.31 144.073 56.8793)" fill="white"/>
<circle cx="142.644" cy="58.0502" r="0.435547" transform="rotate(-84.31 142.644 58.0502)" fill="white"/>
<circle cx="141.43" cy="57.0541" r="0.435547" transform="rotate(-84.31 141.43 57.0541)" fill="white"/>
<circle cx="139.826" cy="55.581" r="0.435547" transform="rotate(-84.31 139.826 55.581)" fill="white"/>
<circle cx="144.158" cy="51.6357" r="0.435547" transform="rotate(-84.31 144.158 51.6357)" fill="white"/>
<circle cx="142.295" cy="52.7631" r="0.435547" transform="rotate(-84.31 142.295 52.7631)" fill="white"/>
<circle cx="140.432" cy="53.8905" r="0.435547" transform="rotate(-84.31 140.432 53.8905)" fill="white"/>
<circle cx="137.788" cy="54.0649" r="0.435547" transform="rotate(-84.31 137.788 54.0649)" fill="white"/>
<circle cx="135.317" cy="52.5058" r="0.435547" transform="rotate(-84.31 135.317 52.5058)" fill="white"/>
<circle cx="136.357" cy="50.8583" r="0.435547" transform="rotate(-84.31 136.357 50.8583)" fill="white"/>
<circle cx="137.396" cy="49.2109" r="0.435547" transform="rotate(-84.31 137.396 49.2109)" fill="white"/>
<circle cx="135.809" cy="57.6891" r="0.435547" transform="rotate(-40.165 135.809 57.6891)" fill="white"/>
<circle cx="138.544" cy="58.2292" r="0.435547" transform="rotate(-40.165 138.544 58.2292)" fill="white"/>
<circle cx="141.281" cy="58.7702" r="0.435547" transform="rotate(-40.165 141.281 58.7702)" fill="white"/>
<circle cx="142.352" cy="60.715" r="0.435547" transform="rotate(-40.165 142.352 60.715)" fill="white"/>
<circle cx="144.474" cy="61.2033" r="0.435547" transform="rotate(-40.165 144.474 61.2033)" fill="white"/>
<circle cx="143.402" cy="59.2585" r="0.435547" transform="rotate(-40.165 143.402 59.2585)" fill="white"/>
<circle cx="140.583" cy="63.3468" r="0.435547" transform="rotate(-40.165 140.583 63.3468)" fill="white"/>
<circle cx="139.076" cy="62.9103" r="0.435547" transform="rotate(-40.165 139.076 62.9103)" fill="white"/>
<circle cx="137.568" cy="62.4738" r="0.435547" transform="rotate(-40.165 137.568 62.4738)" fill="white"/>
<circle cx="135.674" cy="62.9323" r="0.435547" transform="rotate(-40.165 135.674 62.9323)" fill="white"/>
<circle cx="135.799" cy="65.1061" r="0.435547" transform="rotate(-40.165 135.799 65.1061)" fill="white"/>
<circle cx="133.958" cy="64.9504" r="0.435547" transform="rotate(-40.165 133.958 64.9504)" fill="white"/>
<circle cx="133.781" cy="63.3898" r="0.435547" transform="rotate(-40.165 133.781 63.3898)" fill="white"/>
<circle cx="133.655" cy="61.2155" r="0.435547" transform="rotate(-40.165 133.655 61.2155)" fill="white"/>
<circle cx="139.512" cy="61.402" r="0.435547" transform="rotate(-40.165 139.512 61.402)" fill="white"/>
<circle cx="137.389" cy="60.9132" r="0.435547" transform="rotate(-40.165 137.389 60.9132)" fill="white"/>
<circle cx="135.268" cy="60.425" r="0.435547" transform="rotate(-40.165 135.268 60.425)" fill="white"/>
<circle cx="133.249" cy="58.7091" r="0.435547" transform="rotate(-40.165 133.249 58.7091)" fill="white"/>
<circle cx="132.563" cy="55.8688" r="0.435547" transform="rotate(-40.165 132.563 55.8688)" fill="white"/>
<circle cx="134.455" cy="55.4108" r="0.435547" transform="rotate(-40.165 134.455 55.4108)" fill="white"/>
<circle cx="136.348" cy="54.9533" r="0.435547" transform="rotate(-40.165 136.348 54.9533)" fill="white"/>
<circle cx="152.935" cy="51.0309" r="0.435547" transform="rotate(12.3606 152.935 51.0309)" fill="white"/>
<circle cx="154.169" cy="53.5309" r="0.435547" transform="rotate(12.3606 154.169 53.5309)" fill="white"/>
<circle cx="155.405" cy="56.0319" r="0.435547" transform="rotate(12.3606 155.405 56.0319)" fill="white"/>
<circle cx="154.513" cy="58.0656" r="0.435547" transform="rotate(12.3606 154.513 58.0656)" fill="white"/>
<circle cx="155.418" cy="60.047" r="0.435547" transform="rotate(12.3606 155.418 60.047)" fill="white"/>
<circle cx="156.309" cy="58.0128" r="0.435547" transform="rotate(12.3606 156.309 58.0128)" fill="white"/>
<circle cx="151.349" cy="58.2638" r="0.435547" transform="rotate(12.3606 151.349 58.2638)" fill="white"/>
<circle cx="150.778" cy="56.8009" r="0.435547" transform="rotate(12.3606 150.778 56.8009)" fill="white"/>
<circle cx="150.206" cy="55.338" r="0.435547" transform="rotate(12.3606 150.206 55.338)" fill="white"/>
<circle cx="148.692" cy="54.1144" r="0.435547" transform="rotate(12.3606 148.692 54.1144)" fill="white"/>
<circle cx="147.042" cy="55.5358" r="0.435547" transform="rotate(12.3606 147.042 55.5358)" fill="white"/>
<circle cx="146.046" cy="53.9801" r="0.435547" transform="rotate(12.3606 146.046 53.9801)" fill="white"/>
<circle cx="147.177" cy="52.8903" r="0.435547" transform="rotate(12.3606 147.177 52.8903)" fill="white"/>
<circle cx="148.826" cy="51.4684" r="0.435547" transform="rotate(12.3606 148.826 51.4684)" fill="white"/>
<circle cx="152.24" cy="56.2296" r="0.435547" transform="rotate(12.3606 152.24 56.2296)" fill="white"/>
<circle cx="151.338" cy="54.2482" r="0.435547" transform="rotate(12.3606 151.338 54.2482)" fill="white"/>
<circle cx="150.434" cy="52.2667" r="0.435547" transform="rotate(12.3606 150.434 52.2667)" fill="white"/>
<circle cx="150.568" cy="49.6207" r="0.435547" transform="rotate(12.3606 150.568 49.6207)" fill="white"/>
<circle cx="152.404" cy="47.3483" r="0.435547" transform="rotate(12.3606 152.404 47.3483)" fill="white"/>
<circle cx="153.919" cy="48.5719" r="0.435547" transform="rotate(12.3606 153.919 48.5719)" fill="white"/>
<circle cx="155.434" cy="49.7955" r="0.435547" transform="rotate(12.3606 155.434 49.7955)" fill="white"/>
<circle cx="158.401" cy="68.9416" r="0.435547" transform="rotate(150.24 158.401 68.9416)" fill="white"/>
<circle cx="155.809" cy="67.9162" r="0.435547" transform="rotate(150.24 155.809 67.9162)" fill="white"/>
<circle cx="153.215" cy="66.8903" r="0.435547" transform="rotate(150.24 153.215 66.8903)" fill="white"/>
<circle cx="152.513" cy="64.7834" r="0.435547" transform="rotate(150.24 152.513 64.7834)" fill="white"/>
<circle cx="150.513" cy="63.9201" r="0.435547" transform="rotate(150.24 150.513 63.9201)" fill="white"/>
<circle cx="151.215" cy="66.0261" r="0.435547" transform="rotate(150.24 151.215 66.0261)" fill="white"/>
<circle cx="154.727" cy="62.5144" r="0.435547" transform="rotate(150.24 154.727 62.5144)" fill="white"/>
<circle cx="156.131" cy="63.2155" r="0.435547" transform="rotate(150.24 156.131 63.2155)" fill="white"/>
<circle cx="157.536" cy="63.9177" r="0.435547" transform="rotate(150.24 157.536 63.9177)" fill="white"/>
<circle cx="159.48" cy="63.8093" r="0.435547" transform="rotate(150.24 159.48 63.8093)" fill="white"/>
<circle cx="159.75" cy="61.6481" r="0.435547" transform="rotate(150.24 159.75 61.6481)" fill="white"/>
<circle cx="161.533" cy="62.1345" r="0.435547" transform="rotate(150.24 161.533 62.1345)" fill="white"/>
<circle cx="161.425" cy="63.7009" r="0.435547" transform="rotate(150.24 161.425 63.7009)" fill="white"/>
<circle cx="161.156" cy="65.8615" r="0.435547" transform="rotate(150.24 161.156 65.8615)" fill="white"/>
<circle cx="155.429" cy="64.6208" r="0.435547" transform="rotate(150.24 155.429 64.6208)" fill="white"/>
<circle cx="157.427" cy="65.4846" r="0.435547" transform="rotate(150.24 157.427 65.4846)" fill="white"/>
<circle cx="159.427" cy="66.3488" r="0.435547" transform="rotate(150.24 159.427 66.3488)" fill="white"/>
<circle cx="161.103" cy="68.4006" r="0.435547" transform="rotate(150.24 161.103 68.4006)" fill="white"/>
<circle cx="161.265" cy="71.3181" r="0.435547" transform="rotate(150.24 161.265 71.3181)" fill="white"/>
<circle cx="159.321" cy="71.427" r="0.435547" transform="rotate(150.24 159.321 71.427)" fill="white"/>
<circle cx="157.375" cy="71.5354" r="0.435547" transform="rotate(150.24 157.375 71.5354)" fill="white"/>
<circle cx="165.203" cy="67.9128" r="0.435547" transform="rotate(-165.615 165.203 67.9128)" fill="white"/>
<circle cx="164.057" cy="65.3703" r="0.435547" transform="rotate(-165.615 164.057 65.3703)" fill="white"/>
<circle cx="162.91" cy="62.8278" r="0.435547" transform="rotate(-165.615 162.91 62.8278)" fill="white"/>
<circle cx="163.874" cy="60.8263" r="0.435547" transform="rotate(-165.615 163.874 60.8263)" fill="white"/>
<circle cx="163.04" cy="58.8146" r="0.435547" transform="rotate(-165.615 163.04 58.8146)" fill="white"/>
<circle cx="162.077" cy="60.8161" r="0.435547" transform="rotate(-165.615 162.077 60.8161)" fill="white"/>
<circle cx="167.042" cy="60.7404" r="0.435547" transform="rotate(-165.615 167.042 60.7404)" fill="white"/>
<circle cx="167.561" cy="62.2223" r="0.435547" transform="rotate(-165.615 167.561 62.2223)" fill="white"/>
<circle cx="168.081" cy="63.7043" r="0.435547" transform="rotate(-165.615 168.081 63.7043)" fill="white"/>
<circle cx="169.552" cy="64.9811" r="0.435547" transform="rotate(-165.615 169.552 64.9811)" fill="white"/>
<circle cx="171.251" cy="63.6183" r="0.435547" transform="rotate(-165.615 171.251 63.6183)" fill="white"/>
<circle cx="172.191" cy="65.2087" r="0.435547" transform="rotate(-165.615 172.191 65.2087)" fill="white"/>
<circle cx="171.023" cy="66.258" r="0.435547" transform="rotate(-165.615 171.023 66.258)" fill="white"/>
<circle cx="169.325" cy="67.6213" r="0.435547" transform="rotate(-165.615 169.325 67.6213)" fill="white"/>
<circle cx="166.079" cy="62.7419" r="0.435547" transform="rotate(-165.615 166.079 62.7419)" fill="white"/>
<circle cx="166.913" cy="64.7536" r="0.435547" transform="rotate(-165.615 166.913 64.7536)" fill="white"/>
<circle cx="167.746" cy="66.7658" r="0.435547" transform="rotate(-165.615 167.746 66.7658)" fill="white"/>
<circle cx="167.517" cy="69.4059" r="0.435547" transform="rotate(-165.615 167.517 69.4059)" fill="white"/>
<circle cx="165.603" cy="71.6125" r="0.435547" transform="rotate(-165.615 165.603 71.6125)" fill="white"/>
<circle cx="164.133" cy="70.3356" r="0.435547" transform="rotate(-165.615 164.133 70.3356)" fill="white"/>
<circle cx="162.66" cy="69.0597" r="0.435547" transform="rotate(-165.615 162.66 69.0597)" fill="white"/>
<circle cx="149.846" cy="57.8226" r="0.435547" transform="rotate(-113.089 149.846 57.8226)" fill="white"/>
<circle cx="151.166" cy="55.366" r="0.435547" transform="rotate(-113.089 151.166 55.366)" fill="white"/>
<circle cx="152.487" cy="52.909" r="0.435547" transform="rotate(-113.089 152.487 52.909)" fill="white"/>
<circle cx="154.661" cy="52.4559" r="0.435547" transform="rotate(-113.089 154.661 52.4559)" fill="white"/>
<circle cx="155.75" cy="50.5706" r="0.435547" transform="rotate(-113.089 155.75 50.5706)" fill="white"/>
<circle cx="153.577" cy="51.0238" r="0.435547" transform="rotate(-113.089 153.577 51.0238)" fill="white"/>
<circle cx="156.658" cy="54.9188" r="0.435547" transform="rotate(-113.089 156.658 54.9188)" fill="white"/>
<circle cx="155.797" cy="56.2322" r="0.435547" transform="rotate(-113.089 155.797 56.2322)" fill="white"/>
<circle cx="154.937" cy="57.5462" r="0.435547" transform="rotate(-113.089 154.937 57.5462)" fill="white"/>
<circle cx="154.819" cy="59.4905" r="0.435547" transform="rotate(-113.089 154.819 59.4905)" fill="white"/>
<circle cx="156.933" cy="60.0091" r="0.435547" transform="rotate(-113.089 156.933 60.0091)" fill="white"/>
<circle cx="156.244" cy="61.7239" r="0.435547" transform="rotate(-113.089 156.244 61.7239)" fill="white"/>
<circle cx="154.701" cy="61.4349" r="0.435547" transform="rotate(-113.089 154.701 61.4349)" fill="white"/>
<circle cx="152.585" cy="60.9158" r="0.435547" transform="rotate(-113.089 152.585 60.9158)" fill="white"/>
<circle cx="154.483" cy="55.3724" r="0.435547" transform="rotate(-113.089 154.483 55.3724)" fill="white"/>
<circle cx="153.394" cy="57.2571" r="0.435547" transform="rotate(-113.089 153.394 57.2571)" fill="white"/>
<circle cx="152.303" cy="59.1429" r="0.435547" transform="rotate(-113.089 152.303 59.1429)" fill="white"/>
<circle cx="150.07" cy="60.5682" r="0.435547" transform="rotate(-113.089 150.07 60.5682)" fill="white"/>
<circle cx="147.154" cy="60.3909" r="0.435547" transform="rotate(-113.089 147.154 60.3909)" fill="white"/>
<circle cx="147.272" cy="58.4466" r="0.435547" transform="rotate(-113.089 147.272 58.4466)" fill="white"/>
<circle cx="147.39" cy="56.5028" r="0.435547" transform="rotate(-113.089 147.39 56.5028)" fill="white"/>
<circle cx="73.8453" cy="115.818" r="0.435547" transform="rotate(-70.2332 73.8453 115.818)" fill="white"/>
<circle cx="76.483" cy="114.915" r="0.435547" transform="rotate(-70.2332 76.483 114.915)" fill="white"/>
<circle cx="79.1216" cy="114.012" r="0.435547" transform="rotate(-70.2332 79.1216 114.012)" fill="white"/>
<circle cx="81.025" cy="115.158" r="0.435547" transform="rotate(-70.2332 81.025 115.158)" fill="white"/>
<circle cx="83.106" cy="114.518" r="0.435547" transform="rotate(-70.2332 83.106 114.518)" fill="white"/>
<circle cx="81.2037" cy="113.371" r="0.435547" transform="rotate(-70.2332 81.2037 113.371)" fill="white"/>
<circle cx="80.8121" cy="118.323" r="0.435547" transform="rotate(-70.2332 80.8121 118.323)" fill="white"/>
<circle cx="79.2896" cy="118.7" r="0.435547" transform="rotate(-70.2332 79.2896 118.7)" fill="white"/>
<circle cx="77.7652" cy="119.078" r="0.435547" transform="rotate(-70.2332 77.7652 119.078)" fill="white"/>
<circle cx="76.355" cy="120.423" r="0.435547" transform="rotate(-70.2332 76.355 120.423)" fill="white"/>
<circle cx="77.5533" cy="122.242" r="0.435547" transform="rotate(-70.2332 77.5533 122.242)" fill="white"/>
<circle cx="75.8814" cy="123.029" r="0.435547" transform="rotate(-70.2332 75.8814 123.029)" fill="white"/>
<circle cx="74.9468" cy="121.768" r="0.435547" transform="rotate(-70.2332 74.9468 121.768)" fill="white"/>
<circle cx="73.7496" cy="119.949" r="0.435547" transform="rotate(-70.2332 73.7496 119.949)" fill="white"/>
<circle cx="78.9107" cy="117.176" r="0.435547" transform="rotate(-70.2332 78.9107 117.176)" fill="white"/>
<circle cx="76.8287" cy="117.817" r="0.435547" transform="rotate(-70.2332 76.8287 117.817)" fill="white"/>
<circle cx="74.7486" cy="118.457" r="0.435547" transform="rotate(-70.2332 74.7486 118.457)" fill="white"/>
<circle cx="72.1412" cy="117.983" r="0.435547" transform="rotate(-70.2332 72.1412 117.983)" fill="white"/>
<circle cx="70.1236" cy="115.87" r="0.435547" transform="rotate(-70.2332 70.1236 115.87)" fill="white"/>
<circle cx="71.5337" cy="114.525" r="0.435547" transform="rotate(-70.2332 71.5337 114.525)" fill="white"/>
<circle cx="72.9419" cy="113.18" r="0.435547" transform="rotate(-70.2332 72.9419 113.18)" fill="white"/>
<circle cx="69.3405" cy="121.015" r="0.435547" transform="rotate(-26.0882 69.3405 121.015)" fill="white"/>
<circle cx="71.863" cy="122.205" r="0.435547" transform="rotate(-26.0882 71.863 122.205)" fill="white"/>
<circle cx="74.3864" cy="123.395" r="0.435547" transform="rotate(-26.0882 74.3864 123.395)" fill="white"/>
<circle cx="74.9518" cy="125.542" r="0.435547" transform="rotate(-26.0882 74.9518 125.542)" fill="white"/>
<circle cx="76.8923" cy="126.532" r="0.435547" transform="rotate(-26.0882 76.8923 126.532)" fill="white"/>
<circle cx="76.3259" cy="124.385" r="0.435547" transform="rotate(-26.0882 76.3259 124.385)" fill="white"/>
<circle cx="72.5974" cy="127.665" r="0.435547" transform="rotate(-26.0882 72.5974 127.665)" fill="white"/>
<circle cx="71.2399" cy="126.875" r="0.435547" transform="rotate(-26.0882 71.2399 126.875)" fill="white"/>
<circle cx="69.8835" cy="126.085" r="0.435547" transform="rotate(-26.0882 69.8835 126.085)" fill="white"/>
<circle cx="67.9362" cy="126.068" r="0.435547" transform="rotate(-26.0882 67.9362 126.068)" fill="white"/>
<circle cx="67.527" cy="128.207" r="0.435547" transform="rotate(-26.0882 67.527 128.207)" fill="white"/>
<circle cx="65.78" cy="127.608" r="0.435547" transform="rotate(-26.0882 65.78 127.608)" fill="white"/>
<circle cx="65.988" cy="126.052" r="0.435547" transform="rotate(-26.0882 65.988 126.052)" fill="white"/>
<circle cx="66.3952" cy="123.913" r="0.435547" transform="rotate(-26.0882 66.3952 123.913)" fill="white"/>
<circle cx="72.0309" cy="125.518" r="0.435547" transform="rotate(-26.0882 72.0309 125.518)" fill="white"/>
<circle cx="70.0905" cy="124.528" r="0.435547" transform="rotate(-26.0882 70.0905 124.528)" fill="white"/>
<circle cx="68.1511" cy="123.538" r="0.435547" transform="rotate(-26.0882 68.1511 123.538)" fill="white"/>
<circle cx="66.611" cy="121.382" r="0.435547" transform="rotate(-26.0882 66.611 121.382)" fill="white"/>
<circle cx="66.6354" cy="118.46" r="0.435547" transform="rotate(-26.0882 66.6354 118.46)" fill="white"/>
<circle cx="68.5827" cy="118.476" r="0.435547" transform="rotate(-26.0882 68.5827 118.476)" fill="white"/>
<circle cx="70.5309" cy="118.493" r="0.435547" transform="rotate(-26.0882 70.5309 118.493)" fill="white"/>
<circle cx="87.5721" cy="118.723" r="0.435547" transform="rotate(26.4374 87.5721 118.723)" fill="white"/>
<circle cx="88.1629" cy="121.448" r="0.435547" transform="rotate(26.4374 88.1629 121.448)" fill="white"/>
<circle cx="88.7537" cy="124.174" r="0.435547" transform="rotate(26.4374 88.7537 124.174)" fill="white"/>
<circle cx="87.3933" cy="125.93" r="0.435547" transform="rotate(26.4374 87.3933 125.93)" fill="white"/>
<circle cx="87.7879" cy="128.072" r="0.435547" transform="rotate(26.4374 87.7879 128.072)" fill="white"/>
<circle cx="89.1473" cy="126.316" r="0.435547" transform="rotate(26.4374 89.1473 126.316)" fill="white"/>
<circle cx="84.2762" cy="125.352" r="0.435547" transform="rotate(26.4374 84.2762 125.352)" fill="white"/>
<circle cx="84.0769" cy="123.795" r="0.435547" transform="rotate(26.4374 84.0769 123.795)" fill="white"/>
<circle cx="83.8787" cy="122.237" r="0.435547" transform="rotate(26.4374 83.8787 122.237)" fill="white"/>
<circle cx="82.7068" cy="120.681" r="0.435547" transform="rotate(26.4374 82.7068 120.681)" fill="white"/>
<circle cx="80.7615" cy="121.659" r="0.435547" transform="rotate(26.4374 80.7615 121.659)" fill="white"/>
<circle cx="80.1736" cy="119.908" r="0.435547" transform="rotate(26.4374 80.1736 119.908)" fill="white"/>
<circle cx="81.535" cy="119.126" r="0.435547" transform="rotate(26.4374 81.535 119.126)" fill="white"/>
<circle cx="83.4803" cy="118.147" r="0.435547" transform="rotate(26.4374 83.4803 118.147)" fill="white"/>
<circle cx="85.6346" cy="123.596" r="0.435547" transform="rotate(26.4374 85.6346 123.596)" fill="white"/>
<circle cx="85.241" cy="121.455" r="0.435547" transform="rotate(26.4374 85.241 121.455)" fill="white"/>
<circle cx="84.8465" cy="119.313" r="0.435547" transform="rotate(26.4374 84.8465 119.313)" fill="white"/>
<circle cx="85.6209" cy="116.779" r="0.435547" transform="rotate(26.4374 85.6209 116.779)" fill="white"/>
<circle cx="87.9539" cy="115.021" r="0.435547" transform="rotate(26.4374 87.9539 115.021)" fill="white"/>
<circle cx="89.1258" cy="116.577" r="0.435547" transform="rotate(26.4374 89.1258 116.577)" fill="white"/>
<circle cx="90.2976" cy="118.132" r="0.435547" transform="rotate(26.4374 90.2976 118.132)" fill="white"/>
<circle cx="88.5176" cy="137.425" r="0.435547" transform="rotate(164.317 88.5176 137.425)" fill="white"/>
<circle cx="86.252" cy="135.799" r="0.435547" transform="rotate(164.317 86.252 135.799)" fill="white"/>
<circle cx="83.9864" cy="134.174" r="0.435547" transform="rotate(164.317 83.9864 134.174)" fill="white"/>
<circle cx="83.8164" cy="131.96" r="0.435547" transform="rotate(164.317 83.8164 131.96)" fill="white"/>
<circle cx="82.0879" cy="130.635" r="0.435547" transform="rotate(164.317 82.0879 130.635)" fill="white"/>
<circle cx="82.2569" cy="132.85" r="0.435547" transform="rotate(164.317 82.2569 132.85)" fill="white"/>
<circle cx="86.5166" cy="130.297" r="0.435547" transform="rotate(164.317 86.5166 130.297)" fill="white"/>
<circle cx="87.708" cy="131.32" r="0.435547" transform="rotate(164.317 87.708 131.32)" fill="white"/>
<circle cx="88.9004" cy="132.342" r="0.435547" transform="rotate(164.317 88.9004 132.342)" fill="white"/>
<circle cx="90.8125" cy="132.71" r="0.435547" transform="rotate(164.317 90.8125 132.71)" fill="white"/>
<circle cx="91.6006" cy="130.679" r="0.435547" transform="rotate(164.317 91.6006 130.679)" fill="white"/>
<circle cx="93.211" cy="131.584" r="0.435547" transform="rotate(164.317 93.211 131.584)" fill="white"/>
<circle cx="92.7256" cy="133.077" r="0.435547" transform="rotate(164.317 92.7256 133.077)" fill="white"/>
<circle cx="91.9385" cy="135.108" r="0.435547" transform="rotate(164.317 91.9385 135.108)" fill="white"/>
<circle cx="86.6856" cy="132.511" r="0.435547" transform="rotate(164.317 86.6856 132.511)" fill="white"/>
<circle cx="88.4151" cy="133.835" r="0.435547" transform="rotate(164.317 88.4151 133.835)" fill="white"/>
<circle cx="90.1436" cy="135.159" r="0.435547" transform="rotate(164.317 90.1436 135.159)" fill="white"/>
<circle cx="91.2696" cy="137.558" r="0.435547" transform="rotate(164.317 91.2696 137.558)" fill="white"/>
<circle cx="90.7178" cy="140.427" r="0.435547" transform="rotate(164.317 90.7178 140.427)" fill="white"/>
<circle cx="88.8057" cy="140.059" r="0.435547" transform="rotate(164.317 88.8057 140.059)" fill="white"/>
<circle cx="86.8926" cy="139.691" r="0.435547" transform="rotate(164.317 86.8926 139.691)" fill="white"/>
<circle cx="95.3657" cy="138.083" r="0.435547" transform="rotate(-151.538 95.3657 138.083)" fill="white"/>
<circle cx="94.8715" cy="135.338" r="0.435547" transform="rotate(-151.538 94.8715 135.338)" fill="white"/>
<circle cx="94.3774" cy="132.593" r="0.435547" transform="rotate(-151.538 94.3774 132.593)" fill="white"/>
<circle cx="95.7983" cy="130.886" r="0.435547" transform="rotate(-151.538 95.7983 130.886)" fill="white"/>
<circle cx="95.479" cy="128.732" r="0.435547" transform="rotate(-151.538 95.479 128.732)" fill="white"/>
<circle cx="94.059" cy="130.438" r="0.435547" transform="rotate(-151.538 94.059 130.438)" fill="white"/>
<circle cx="98.893" cy="131.573" r="0.435547" transform="rotate(-151.538 98.893 131.573)" fill="white"/>
<circle cx="99.0376" cy="133.137" r="0.435547" transform="rotate(-151.538 99.0376 133.137)" fill="white"/>
<circle cx="99.1792" cy="134.701" r="0.435547" transform="rotate(-151.538 99.1792 134.701)" fill="white"/>
<circle cx="100.296" cy="136.297" r="0.435547" transform="rotate(-151.538 100.296 136.297)" fill="white"/>
<circle cx="102.275" cy="135.388" r="0.435547" transform="rotate(-151.538 102.275 135.388)" fill="white"/>
<circle cx="102.801" cy="137.16" r="0.435547" transform="rotate(-151.538 102.801 137.16)" fill="white"/>
<circle cx="101.413" cy="137.893" r="0.435547" transform="rotate(-151.538 101.413 137.893)" fill="white"/>
<circle cx="99.434" cy="138.802" r="0.435547" transform="rotate(-151.538 99.434 138.802)" fill="white"/>
<circle cx="97.4721" cy="133.281" r="0.435547" transform="rotate(-151.538 97.4721 133.281)" fill="white"/>
<circle cx="97.7905" cy="135.434" r="0.435547" transform="rotate(-151.538 97.7905 135.434)" fill="white"/>
<circle cx="98.1098" cy="137.589" r="0.435547" transform="rotate(-151.538 98.1098 137.589)" fill="white"/>
<circle cx="97.2465" cy="140.094" r="0.435547" transform="rotate(-151.538 97.2465 140.094)" fill="white"/>
<circle cx="94.853" cy="141.768" r="0.435547" transform="rotate(-151.538 94.853 141.768)" fill="white"/>
<circle cx="93.7358" cy="140.172" r="0.435547" transform="rotate(-151.538 93.7358 140.172)" fill="white"/>
<circle cx="92.6206" cy="138.577" r="0.435547" transform="rotate(-151.538 92.6206 138.577)" fill="white"/>
<circle cx="82.9244" cy="124.56" r="0.435547" transform="rotate(-99.0125 82.9244 124.56)" fill="white"/>
<circle cx="84.8004" cy="122.498" r="0.435547" transform="rotate(-99.0125 84.8004 122.498)" fill="white"/>
<circle cx="86.6793" cy="120.436" r="0.435547" transform="rotate(-99.0125 86.6793 120.436)" fill="white"/>
<circle cx="88.899" cy="120.525" r="0.435547" transform="rotate(-99.0125 88.899 120.525)" fill="white"/>
<circle cx="90.4137" cy="118.962" r="0.435547" transform="rotate(-99.0125 90.4137 118.962)" fill="white"/>
<circle cx="88.1949" cy="118.872" r="0.435547" transform="rotate(-99.0125 88.1949 118.872)" fill="white"/>
<circle cx="90.236" cy="123.4" r="0.435547" transform="rotate(-99.0125 90.236 123.4)" fill="white"/>
<circle cx="89.0826" cy="124.465" r="0.435547" transform="rotate(-99.0125 89.0826 124.465)" fill="white"/>
<circle cx="87.9283" cy="125.53" r="0.435547" transform="rotate(-99.0125 87.9283 125.53)" fill="white"/>
<circle cx="87.3405" cy="127.387" r="0.435547" transform="rotate(-99.0125 87.3405 127.387)" fill="white"/>
<circle cx="89.2653" cy="128.405" r="0.435547" transform="rotate(-99.0125 89.2653 128.405)" fill="white"/>
<circle cx="88.1803" cy="129.9" r="0.435547" transform="rotate(-99.0125 88.1803 129.9)" fill="white"/>
<circle cx="86.7535" cy="129.244" r="0.435547" transform="rotate(-99.0125 86.7535 129.244)" fill="white"/>
<circle cx="84.8287" cy="128.227" r="0.435547" transform="rotate(-99.0125 84.8287 128.227)" fill="white"/>
<circle cx="88.0172" cy="123.311" r="0.435547" transform="rotate(-99.0125 88.0172 123.311)" fill="white"/>
<circle cx="86.5016" cy="124.875" r="0.435547" transform="rotate(-99.0125 86.5016 124.875)" fill="white"/>
<circle cx="84.985" cy="126.438" r="0.435547" transform="rotate(-99.0125 84.985 126.438)" fill="white"/>
<circle cx="82.4723" cy="127.277" r="0.435547" transform="rotate(-99.0125 82.4723 127.277)" fill="white"/>
<circle cx="79.6871" cy="126.396" r="0.435547" transform="rotate(-99.0125 79.6871 126.396)" fill="white"/>
<circle cx="80.274" cy="124.539" r="0.435547" transform="rotate(-99.0125 80.274 124.539)" fill="white"/>
<circle cx="80.8619" cy="122.682" r="0.435547" transform="rotate(-99.0125 80.8619 122.682)" fill="white"/>
<circle cx="328.631" cy="21.2522" r="0.435547" transform="rotate(-79.2745 328.631 21.2522)" fill="white"/>
<circle cx="331.095" cy="19.9461" r="0.435547" transform="rotate(-79.2745 331.095 19.9461)" fill="white"/>
<circle cx="333.56" cy="18.639" r="0.435547" transform="rotate(-79.2745 333.56 18.639)" fill="white"/>
<circle cx="335.618" cy="19.4725" r="0.435547" transform="rotate(-79.2745 335.618 19.4725)" fill="white"/>
<circle cx="337.573" cy="18.513" r="0.435547" transform="rotate(-79.2745 337.573 18.513)" fill="white"/>
<circle cx="335.514" cy="17.68" r="0.435547" transform="rotate(-79.2745 335.514 17.68)" fill="white"/>
<circle cx="335.906" cy="22.6307" r="0.435547" transform="rotate(-79.2745 335.906 22.6307)" fill="white"/>
<circle cx="334.459" cy="23.243" r="0.435547" transform="rotate(-79.2745 334.459 23.243)" fill="white"/>
<circle cx="333.015" cy="23.8558" r="0.435547" transform="rotate(-79.2745 333.015 23.8558)" fill="white"/>
<circle cx="331.834" cy="25.4056" r="0.435547" transform="rotate(-79.2745 331.834 25.4056)" fill="white"/>
<circle cx="333.303" cy="27.014" r="0.435547" transform="rotate(-79.2745 333.303 27.014)" fill="white"/>
<circle cx="331.776" cy="28.0545" r="0.435547" transform="rotate(-79.2745 331.776 28.0545)" fill="white"/>
<circle cx="330.655" cy="26.9549" r="0.435547" transform="rotate(-79.2745 330.655 26.9549)" fill="white"/>
<circle cx="329.186" cy="25.3465" r="0.435547" transform="rotate(-79.2745 329.186 25.3465)" fill="white"/>
<circle cx="333.848" cy="21.7972" r="0.435547" transform="rotate(-79.2745 333.848 21.7972)" fill="white"/>
<circle cx="331.893" cy="22.7566" r="0.435547" transform="rotate(-79.2745 331.893 22.7566)" fill="white"/>
<circle cx="329.939" cy="23.7161" r="0.435547" transform="rotate(-79.2745 329.939 23.7161)" fill="white"/>
<circle cx="327.289" cy="23.658" r="0.435547" transform="rotate(-79.2745 327.289 23.658)" fill="white"/>
<circle cx="324.965" cy="21.8875" r="0.435547" transform="rotate(-79.2745 324.965 21.8875)" fill="white"/>
<circle cx="326.145" cy="20.3387" r="0.435547" transform="rotate(-79.2745 326.145 20.3387)" fill="white"/>
<circle cx="327.324" cy="18.7884" r="0.435547" transform="rotate(-79.2745 327.324 18.7884)" fill="white"/>
<circle cx="324.997" cy="27.0929" r="0.435547" transform="rotate(-35.1295 324.997 27.0929)" fill="white"/>
<circle cx="327.676" cy="27.8717" r="0.435547" transform="rotate(-35.1295 327.676 27.8717)" fill="white"/>
<circle cx="330.354" cy="28.65" r="0.435547" transform="rotate(-35.1295 330.354 28.65)" fill="white"/>
<circle cx="331.25" cy="30.6822" r="0.435547" transform="rotate(-35.1295 331.25 30.6822)" fill="white"/>
<circle cx="333.322" cy="31.3551" r="0.435547" transform="rotate(-35.1295 333.322 31.3551)" fill="white"/>
<circle cx="332.425" cy="29.3234" r="0.435547" transform="rotate(-35.1295 332.425 29.3234)" fill="white"/>
<circle cx="329.259" cy="33.149" r="0.435547" transform="rotate(-35.1295 329.259 33.149)" fill="white"/>
<circle cx="327.794" cy="32.5817" r="0.435547" transform="rotate(-35.1295 327.794 32.5817)" fill="white"/>
<circle cx="326.329" cy="32.0138" r="0.435547" transform="rotate(-35.1295 326.329 32.0138)" fill="white"/>
<circle cx="324.404" cy="32.3043" r="0.435547" transform="rotate(-35.1295 324.404 32.3043)" fill="white"/>
<circle cx="324.338" cy="34.4811" r="0.435547" transform="rotate(-35.1295 324.338 34.4811)" fill="white"/>
<circle cx="322.516" cy="34.1642" r="0.435547" transform="rotate(-35.1295 322.516 34.1642)" fill="white"/>
<circle cx="322.477" cy="32.5944" r="0.435547" transform="rotate(-35.1295 322.477 32.5944)" fill="white"/>
<circle cx="322.544" cy="30.4176" r="0.435547" transform="rotate(-35.1295 322.544 30.4176)" fill="white"/>
<circle cx="328.362" cy="31.1168" r="0.435547" transform="rotate(-35.1295 328.362 31.1168)" fill="white"/>
<circle cx="326.289" cy="30.444" r="0.435547" transform="rotate(-35.1295 326.289 30.444)" fill="white"/>
<circle cx="324.219" cy="29.7716" r="0.435547" transform="rotate(-35.1295 324.219 29.7716)" fill="white"/>
<circle cx="322.36" cy="27.8844" r="0.435547" transform="rotate(-35.1295 322.36 27.8844)" fill="white"/>
<circle cx="321.924" cy="24.9952" r="0.435547" transform="rotate(-35.1295 321.924 24.9952)" fill="white"/>
<circle cx="323.85" cy="24.7057" r="0.435547" transform="rotate(-35.1295 323.85 24.7057)" fill="white"/>
<circle cx="325.777" cy="24.4147" r="0.435547" transform="rotate(-35.1295 325.777 24.4147)" fill="white"/>
<circle cx="342.643" cy="21.9643" r="0.435547" transform="rotate(17.3961 342.643 21.9643)" fill="white"/>
<circle cx="343.655" cy="24.5629" r="0.435547" transform="rotate(17.3961 343.655 24.5629)" fill="white"/>
<circle cx="344.665" cy="27.1625" r="0.435547" transform="rotate(17.3961 344.665 27.1625)" fill="white"/>
<circle cx="343.6" cy="29.1108" r="0.435547" transform="rotate(17.3961 343.6 29.1108)" fill="white"/>
<circle cx="344.325" cy="31.164" r="0.435547" transform="rotate(17.3961 344.325 31.164)" fill="white"/>
<circle cx="345.391" cy="29.2158" r="0.435547" transform="rotate(17.3961 345.391 29.2158)" fill="white"/>
<circle cx="340.429" cy="29.0302" r="0.435547" transform="rotate(17.3961 340.429 29.0302)" fill="white"/>
<circle cx="339.989" cy="27.5224" r="0.435547" transform="rotate(17.3961 339.989 27.5224)" fill="white"/>
<circle cx="339.548" cy="26.0151" r="0.435547" transform="rotate(17.3961 339.548 26.0151)" fill="white"/>
<circle cx="338.146" cy="24.663" r="0.435547" transform="rotate(17.3961 338.146 24.663)" fill="white"/>
<circle cx="336.378" cy="25.935" r="0.435547" transform="rotate(17.3961 336.378 25.935)" fill="white"/>
<circle cx="335.522" cy="24.2978" r="0.435547" transform="rotate(17.3961 335.522 24.2978)" fill="white"/>
<circle cx="336.743" cy="23.311" r="0.435547" transform="rotate(17.3961 336.743 23.311)" fill="white"/>
<circle cx="338.512" cy="22.0395" r="0.435547" transform="rotate(17.3961 338.512 22.0395)" fill="white"/>
<circle cx="341.496" cy="27.0825" r="0.435547" transform="rotate(17.3961 341.496 27.0825)" fill="white"/>
<circle cx="340.771" cy="25.0288" r="0.435547" transform="rotate(17.3961 340.771 25.0288)" fill="white"/>
<circle cx="340.044" cy="22.976" r="0.435547" transform="rotate(17.3961 340.044 22.976)" fill="white"/>
<circle cx="340.409" cy="20.3515" r="0.435547" transform="rotate(17.3961 340.409 20.3515)" fill="white"/>
<circle cx="342.438" cy="18.249" r="0.435547" transform="rotate(17.3961 342.438 18.249)" fill="white"/>
<circle cx="343.839" cy="19.601" r="0.435547" transform="rotate(17.3961 343.839 19.601)" fill="white"/>
<circle cx="345.242" cy="20.9531" r="0.435547" transform="rotate(17.3961 345.242 20.9531)" fill="white"/>
<circle cx="307.112" cy="22.0071" r="0.435547" transform="rotate(-54.7923 307.112 22.0071)" fill="white"/>
<circle cx="309.896" cy="21.8391" r="0.435547" transform="rotate(-54.7923 309.896 21.8391)" fill="white"/>
<circle cx="312.679" cy="21.6716" r="0.435547" transform="rotate(-54.7923 312.679 21.6716)" fill="white"/>
<circle cx="314.208" cy="23.2829" r="0.435547" transform="rotate(-54.7923 314.208 23.2829)" fill="white"/>
<circle cx="316.384" cy="23.2199" r="0.435547" transform="rotate(-54.7923 316.384 23.2199)" fill="white"/>
<circle cx="314.855" cy="21.6086" r="0.435547" transform="rotate(-54.7923 314.855 21.6086)" fill="white"/>
<circle cx="313.163" cy="26.2766" r="0.435547" transform="rotate(-54.7923 313.163 26.2766)" fill="white"/>
<circle cx="311.591" cy="26.2346" r="0.435547" transform="rotate(-54.7923 311.591 26.2346)" fill="white"/>
<circle cx="310.022" cy="26.1931" r="0.435547" transform="rotate(-54.7923 310.022 26.1931)" fill="white"/>
<circle cx="308.305" cy="27.1145" r="0.435547" transform="rotate(-54.7923 308.305 27.1145)" fill="white"/>
<circle cx="308.975" cy="29.1863" r="0.435547" transform="rotate(-54.7923 308.975 29.1863)" fill="white"/>
<circle cx="307.154" cy="29.5007" r="0.435547" transform="rotate(-54.7923 307.154 29.5007)" fill="white"/>
<circle cx="306.589" cy="28.0354" r="0.435547" transform="rotate(-54.7923 306.589 28.0354)" fill="white"/>
<circle cx="305.918" cy="25.9636" r="0.435547" transform="rotate(-54.7923 305.918 25.9636)" fill="white"/>
<circle cx="311.632" cy="24.6648" r="0.435547" transform="rotate(-54.7923 311.632 24.6648)" fill="white"/>
<circle cx="309.456" cy="24.7278" r="0.435547" transform="rotate(-54.7923 309.456 24.7278)" fill="white"/>
<circle cx="307.279" cy="24.7912" r="0.435547" transform="rotate(-54.7923 307.279 24.7912)" fill="white"/>
<circle cx="304.893" cy="23.6404" r="0.435547" transform="rotate(-54.7923 304.893 23.6404)" fill="white"/>
<circle cx="303.511" cy="21.0661" r="0.435547" transform="rotate(-54.7923 303.511 21.0661)" fill="white"/>
<circle cx="305.227" cy="20.1452" r="0.435547" transform="rotate(-54.7923 305.227 20.1452)" fill="white"/>
<circle cx="306.944" cy="19.2239" r="0.435547" transform="rotate(-54.7923 306.944 19.2239)" fill="white"/>
<circle cx="301.916" cy="25.9188" r="0.435547" transform="rotate(1.87706 301.916 25.9188)" fill="white"/>
<circle cx="303.586" cy="28.1527" r="0.435547" transform="rotate(1.87706 303.586 28.1527)" fill="white"/>
<circle cx="305.256" cy="30.3861" r="0.435547" transform="rotate(1.87706 305.256 30.3861)" fill="white"/>
<circle cx="304.75" cy="32.5487" r="0.435547" transform="rotate(1.87706 304.75 32.5487)" fill="white"/>
<circle cx="305.999" cy="34.3324" r="0.435547" transform="rotate(1.87706 305.999 34.3324)" fill="white"/>
<circle cx="306.505" cy="32.1703" r="0.435547" transform="rotate(1.87706 306.505 32.1703)" fill="white"/>
<circle cx="301.674" cy="33.3197" r="0.435547" transform="rotate(1.87706 301.674 33.3197)" fill="white"/>
<circle cx="300.846" cy="31.9842" r="0.435547" transform="rotate(1.87706 300.846 31.9842)" fill="white"/>
<circle cx="300.019" cy="30.6503" r="0.435547" transform="rotate(1.87706 300.019 30.6503)" fill="white"/>
<circle cx="298.307" cy="29.723" r="0.435547" transform="rotate(1.87706 298.307 29.723)" fill="white"/>
<circle cx="296.944" cy="31.4213" r="0.435547" transform="rotate(1.87706 296.944 31.4213)" fill="white"/>
<circle cx="295.68" cy="30.0721" r="0.435547" transform="rotate(1.87706 295.68 30.0721)" fill="white"/>
<circle cx="296.593" cy="28.7953" r="0.435547" transform="rotate(1.87706 296.593 28.7953)" fill="white"/>
<circle cx="297.956" cy="27.0966" r="0.435547" transform="rotate(1.87706 297.956 27.0966)" fill="white"/>
<circle cx="302.181" cy="31.1571" r="0.435547" transform="rotate(1.87706 302.181 31.1571)" fill="white"/>
<circle cx="300.932" cy="29.3729" r="0.435547" transform="rotate(1.87706 300.932 29.3729)" fill="white"/>
<circle cx="299.684" cy="27.5887" r="0.435547" transform="rotate(1.87706 299.684 27.5887)" fill="white"/>
<circle cx="299.333" cy="24.9628" r="0.435547" transform="rotate(1.87706 299.333 24.9628)" fill="white"/>
<circle cx="300.725" cy="22.3934" r="0.435547" transform="rotate(1.87706 300.725 22.3934)" fill="white"/>
<circle cx="302.438" cy="23.3212" r="0.435547" transform="rotate(1.87706 302.438 23.3212)" fill="white"/>
<circle cx="304.151" cy="24.2489" r="0.435547" transform="rotate(1.87706 304.151 24.2489)" fill="white"/>
<circle cx="319.569" cy="28.4622" r="0.435547" transform="rotate(41.8783 319.569 28.4622)" fill="white"/>
<circle cx="319.412" cy="31.2464" r="0.435547" transform="rotate(41.8783 319.412 31.2464)" fill="white"/>
<circle cx="319.255" cy="34.0311" r="0.435547" transform="rotate(41.8783 319.255 34.0311)" fill="white"/>
<circle cx="317.478" cy="35.3616" r="0.435547" transform="rotate(41.8783 317.478 35.3616)" fill="white"/>
<circle cx="317.287" cy="37.5311" r="0.435547" transform="rotate(41.8783 317.287 37.5311)" fill="white"/>
<circle cx="319.066" cy="36.2005" r="0.435547" transform="rotate(41.8783 319.066 36.2005)" fill="white"/>
<circle cx="314.625" cy="33.9754" r="0.435547" transform="rotate(41.8783 314.625 33.9754)" fill="white"/>
<circle cx="314.85" cy="32.4207" r="0.435547" transform="rotate(41.8783 314.85 32.4207)" fill="white"/>
<circle cx="315.073" cy="30.8665" r="0.435547" transform="rotate(41.8783 315.073 30.8665)" fill="white"/>
<circle cx="314.358" cy="29.0545" r="0.435547" transform="rotate(41.8783 314.358 29.0545)" fill="white"/>
<circle cx="312.222" cy="29.4803" r="0.435547" transform="rotate(41.8783 312.222 29.4803)" fill="white"/>
<circle cx="312.121" cy="27.6341" r="0.435547" transform="rotate(41.8783 312.121 27.6341)" fill="white"/>
<circle cx="313.642" cy="27.2435" r="0.435547" transform="rotate(41.8783 313.642 27.2435)" fill="white"/>
<circle cx="315.779" cy="26.8187" r="0.435547" transform="rotate(41.8783 315.779 26.8187)" fill="white"/>
<circle cx="316.404" cy="32.6443" r="0.435547" transform="rotate(41.8783 316.404 32.6443)" fill="white"/>
<circle cx="316.594" cy="30.4749" r="0.435547" transform="rotate(41.8783 316.594 30.4749)" fill="white"/>
<circle cx="316.784" cy="28.3055" r="0.435547" transform="rotate(41.8783 316.784 28.3055)" fill="white"/>
<circle cx="318.204" cy="26.0691" r="0.435547" transform="rotate(41.8783 318.204 26.0691)" fill="white"/>
<circle cx="320.922" cy="24.9954" r="0.435547" transform="rotate(41.8783 320.922 24.9954)" fill="white"/>
<circle cx="321.637" cy="26.8074" r="0.435547" transform="rotate(41.8783 321.637 26.8074)" fill="white"/>
<circle cx="322.353" cy="28.6185" r="0.435547" transform="rotate(41.8783 322.353 28.6185)" fill="white"/>
<circle cx="346.518" cy="40.2861" r="0.435547" transform="rotate(155.275 346.518 40.2861)" fill="white"/>
<circle cx="344.024" cy="39.0361" r="0.435547" transform="rotate(155.275 344.024 39.0361)" fill="white"/>
<circle cx="341.53" cy="37.7865" r="0.435547" transform="rotate(155.275 341.53 37.7865)" fill="white"/>
<circle cx="341.014" cy="35.6264" r="0.435547" transform="rotate(155.275 341.014 35.6264)" fill="white"/>
<circle cx="339.1" cy="34.5903" r="0.435547" transform="rotate(155.275 339.1 34.5903)" fill="white"/>
<circle cx="339.616" cy="36.7509" r="0.435547" transform="rotate(155.275 339.616 36.7509)" fill="white"/>
<circle cx="343.42" cy="33.56" r="0.435547" transform="rotate(155.275 343.42 33.56)" fill="white"/>
<circle cx="344.758" cy="34.3827" r="0.435547" transform="rotate(155.275 344.758 34.3827)" fill="white"/>
<circle cx="346.096" cy="35.205" r="0.435547" transform="rotate(155.275 346.096 35.205)" fill="white"/>
<circle cx="348.042" cy="35.2675" r="0.435547" transform="rotate(155.275 348.042 35.2675)" fill="white"/>
<circle cx="348.5" cy="33.1386" r="0.435547" transform="rotate(155.275 348.5 33.1386)" fill="white"/>
<circle cx="350.234" cy="33.7787" r="0.435547" transform="rotate(155.275 350.234 33.7787)" fill="white"/>
<circle cx="349.989" cy="35.3305" r="0.435547" transform="rotate(155.275 349.989 35.3305)" fill="white"/>
<circle cx="349.531" cy="37.4589" r="0.435547" transform="rotate(155.275 349.531 37.4589)" fill="white"/>
<circle cx="343.936" cy="35.7201" r="0.435547" transform="rotate(155.275 343.936 35.7201)" fill="white"/>
<circle cx="345.852" cy="36.7568" r="0.435547" transform="rotate(155.275 345.852 36.7568)" fill="white"/>
<circle cx="347.766" cy="37.7924" r="0.435547" transform="rotate(155.275 347.766 37.7924)" fill="white"/>
<circle cx="349.256" cy="39.9838" r="0.435547" transform="rotate(155.275 349.256 39.9838)" fill="white"/>
<circle cx="349.161" cy="42.9042" r="0.435547" transform="rotate(155.275 349.161 42.9042)" fill="white"/>
<circle cx="347.215" cy="42.8417" r="0.435547" transform="rotate(155.275 347.215 42.8417)" fill="white"/>
<circle cx="345.267" cy="42.7787" r="0.435547" transform="rotate(155.275 345.267 42.7787)" fill="white"/>
<circle cx="353.384" cy="39.858" r="0.435547" transform="rotate(-160.58 353.384 39.858)" fill="white"/>
<circle cx="352.465" cy="37.2242" r="0.435547" transform="rotate(-160.58 352.465 37.2242)" fill="white"/>
<circle cx="351.546" cy="34.5914" r="0.435547" transform="rotate(-160.58 351.546 34.5914)" fill="white"/>
<circle cx="352.68" cy="32.6832" r="0.435547" transform="rotate(-160.58 352.68 32.6832)" fill="white"/>
<circle cx="352.028" cy="30.6051" r="0.435547" transform="rotate(-160.58 352.028 30.6051)" fill="white"/>
<circle cx="350.892" cy="32.5142" r="0.435547" transform="rotate(-160.58 350.892 32.5142)" fill="white"/>
<circle cx="355.845" cy="32.8751" r="0.435547" transform="rotate(-160.58 355.845 32.8751)" fill="white"/>
<circle cx="356.233" cy="34.3971" r="0.435547" transform="rotate(-160.58 356.233 34.3971)" fill="white"/>
<circle cx="356.62" cy="35.9185" r="0.435547" transform="rotate(-160.58 356.62 35.9185)" fill="white"/>
<circle cx="357.973" cy="37.3199" r="0.435547" transform="rotate(-160.58 357.973 37.3199)" fill="white"/>
<circle cx="359.786" cy="36.1109" r="0.435547" transform="rotate(-160.58 359.786 36.1109)" fill="white"/>
<circle cx="360.582" cy="37.7774" r="0.435547" transform="rotate(-160.58 360.582 37.7774)" fill="white"/>
<circle cx="359.326" cy="38.7203" r="0.435547" transform="rotate(-160.58 359.326 38.7203)" fill="white"/>
<circle cx="357.515" cy="39.9288" r="0.435547" transform="rotate(-160.58 357.515 39.9288)" fill="white"/>
<circle cx="354.711" cy="34.7833" r="0.435547" transform="rotate(-160.58 354.711 34.7833)" fill="white"/>
<circle cx="355.364" cy="36.8614" r="0.435547" transform="rotate(-160.58 355.364 36.8614)" fill="white"/>
<circle cx="356.016" cy="38.939" r="0.435547" transform="rotate(-160.58 356.016 38.939)" fill="white"/>
<circle cx="355.558" cy="41.5484" r="0.435547" transform="rotate(-160.58 355.558 41.5484)" fill="white"/>
<circle cx="353.458" cy="43.5787" r="0.435547" transform="rotate(-160.58 353.458 43.5787)" fill="white"/>
<circle cx="352.104" cy="42.1778" r="0.435547" transform="rotate(-160.58 352.104 42.1778)" fill="white"/>
<circle cx="350.751" cy="40.7769" r="0.435547" transform="rotate(-160.58 350.751 40.7769)" fill="white"/>
<circle cx="338.971" cy="28.4587" r="0.435547" transform="rotate(-108.054 338.971 28.4587)" fill="white"/>
<circle cx="340.503" cy="26.1277" r="0.435547" transform="rotate(-108.054 340.503 26.1277)" fill="white"/>
<circle cx="342.032" cy="23.7966" r="0.435547" transform="rotate(-108.054 342.032 23.7966)" fill="white"/>
<circle cx="344.237" cy="23.5359" r="0.435547" transform="rotate(-108.054 344.237 23.5359)" fill="white"/>
<circle cx="345.489" cy="21.7537" r="0.435547" transform="rotate(-108.054 345.489 21.7537)" fill="white"/>
<circle cx="343.284" cy="22.0139" r="0.435547" transform="rotate(-108.054 343.284 22.0139)" fill="white"/>
<circle cx="346.012" cy="26.1643" r="0.435547" transform="rotate(-108.054 346.012 26.1643)" fill="white"/>
<circle cx="345.039" cy="27.3977" r="0.435547" transform="rotate(-108.054 345.039 27.3977)" fill="white"/>
<circle cx="344.065" cy="28.6306" r="0.435547" transform="rotate(-108.054 344.065 28.6306)" fill="white"/>
<circle cx="343.778" cy="30.5574" r="0.435547" transform="rotate(-108.054 343.778 30.5574)" fill="white"/>
<circle cx="345.84" cy="31.2595" r="0.435547" transform="rotate(-108.054 345.84 31.2595)" fill="white"/>
<circle cx="345.003" cy="32.9065" r="0.435547" transform="rotate(-108.054 345.003 32.9065)" fill="white"/>
<circle cx="343.49" cy="32.4831" r="0.435547" transform="rotate(-108.054 343.49 32.4831)" fill="white"/>
<circle cx="341.429" cy="31.781" r="0.435547" transform="rotate(-108.054 341.429 31.781)" fill="white"/>
<circle cx="343.805" cy="26.4255" r="0.435547" transform="rotate(-108.054 343.805 26.4255)" fill="white"/>
<circle cx="342.555" cy="28.2078" r="0.435547" transform="rotate(-108.054 342.555 28.2078)" fill="white"/>
<circle cx="341.303" cy="29.9895" r="0.435547" transform="rotate(-108.054 341.303 29.9895)" fill="white"/>
<circle cx="338.953" cy="31.2141" r="0.435547" transform="rotate(-108.054 338.953 31.2141)" fill="white"/>
<circle cx="336.063" cy="30.781" r="0.435547" transform="rotate(-108.054 336.063 30.781)" fill="white"/>
<circle cx="336.351" cy="28.8547" r="0.435547" transform="rotate(-108.054 336.351 28.8547)" fill="white"/>
<circle cx="336.64" cy="26.9289" r="0.435547" transform="rotate(-108.054 336.64 26.9289)" fill="white"/>
</svg>
