<svg width="961" height="386" viewBox="0 0 961 386" fill="none" xmlns="http://www.w3.org/2000/svg">
<path d="M723.613 85.5981C741.075 98.4652 846.156 141.509 896.514 161.422L957.403 193.015L905.705 382C877.846 368.118 817.129 337.655 797.139 326.856C772.152 313.357 699.2 277.168 656.693 276.019C614.185 274.87 555.307 288.082 478.622 303.879C401.936 319.675 351.961 296.986 335.878 292.103C319.794 287.221 278.435 283.2 243.108 270.562C207.781 257.925 173.316 245.862 169.869 243.564C166.423 241.267 134.542 203.355 121.331 193.015C108.119 182.676 87.4398 155.39 70.2071 135.286C59.0058 127.818 26.5509 114.032 22.53 110.586C19.3132 107.828 23.8703 102.352 26.5509 99.9587C20.9025 95.7463 8.51407 86.2874 4.14846 82.1516C1.16146 76.6371 5.39304 66.2592 7.8822 61.7596C8.07368 60.3235 9.03105 55.0388 11.3287 45.3885C23.2767 9.085 74.8982 50.5583 99.2154 75.8329C101.13 76.5988 109.555 78.9348 127.937 82.1516C160.395 70.1932 223.902 97.1863 269.77 116.682L270.968 117.191C317.381 123.165 343.537 136.913 350.813 143.04C352.344 143.232 360.348 144.304 380.108 147.061C384.704 82.1516 520.267 85.5981 546.116 82.1516C570.242 64.9189 580.007 63.1956 611.601 58.0258C691.445 35.6233 701.785 69.5143 723.613 85.5981Z" fill="#F75369" stroke="white" stroke-width="5"/>
<path d="M3.28711 51.994C15.9244 35.2209 33.8273 66.4503 41.199 84.1617C41.4862 84.1617 41.5437 84.3915 39.4757 85.3105C37.4078 86.2296 33.8273 89.7144 32.2955 91.342L3.28711 51.994Z" fill="#F75369" stroke="white" stroke-width="5"/>
<path d="M41.1994 87.0339L39.1889 83.0129L38.3273 81.0024L29.7109 85.3106L32.2958 89.0444L34.0191 91.9165L34.8807 91.6293L41.1994 87.0339Z" fill="#F75369"/>
<path d="M462.436 122.51C462.835 140.541 458.784 165.205 456.709 175.283C445.005 181.605 420.104 184.078 410.392 179.956C405.412 170.335 406.159 124.709 415.621 118.112C425.084 111.516 462.436 112.066 462.436 122.51Z" stroke="white" stroke-width="5"/>
<path d="M408.801 192.39C386.063 184.944 380.953 148.334 381.24 130.959C381.24 114.361 380.838 91.1225 379.231 130.959C377.221 180.756 401.337 192.39 413.395 197.975C425.453 203.559 475.407 204.025 493.494 204.025C511.581 204.025 558.664 192.39 567.564 189.133C574.684 186.526 582.206 195.493 585.077 200.302L591.967 186.34C588.044 186.65 577.67 187.085 567.564 186.34C554.932 185.409 511.581 198.44 493.494 200.302C475.407 202.163 437.224 201.698 408.801 192.39Z" fill="white"/>
<path d="M548.226 125.496C552.703 135.828 556.148 161.523 534.104 181.637" stroke="white" stroke-width="6" stroke-linecap="round"/>
<path d="M473.74 306.751C448.082 306.942 389.644 299.743 361.153 269.413C345.069 256.776 185.954 172.336 134.83 155.103C93.9315 141.317 75.2819 134.424 71.0695 132.7C72.9842 130.403 74.1714 124.199 63.602 117.765C50.3902 109.724 35.4553 100.533 31.4343 100.533C28.2175 100.533 25.1156 100.533 23.9668 100.533C34.7851 85.0233 75.7223 61.5295 152.925 91.6292C179.348 95.9374 228.461 97.6607 256.895 112.883C277.804 114.491 287.818 114.702 290.212 114.606" stroke="white" stroke-width="5"/>
<path d="M196.293 256.776C194.57 256.489 192.674 229.836 189.688 227.768" stroke="white" stroke-width="5"/>
<path d="M24.8281 81.0023C20.9986 78.9918 9.89307 78.1876 3 83.0128" stroke="white" stroke-width="5"/>
<path d="M560.281 193.692C546.504 199.203 524.231 214.587 514.816 221.59L545.815 229.168C577.846 218.146 635.572 193.348 610.222 182.326C578.535 168.549 577.502 186.803 560.281 193.692Z" fill="#F75369"/>
<circle cx="868.546" cy="349.457" r="0.87568" transform="rotate(84.9901 868.546 349.457)" fill="white"/>
<circle cx="864.49" cy="353.329" r="0.87568" transform="rotate(84.9901 864.49 353.329)" fill="white"/>
<circle cx="860.435" cy="357.201" r="0.87568" transform="rotate(84.9901 860.435 357.201)" fill="white"/>
<circle cx="855.996" cy="356.711" r="0.87568" transform="rotate(84.9901 855.996 356.711)" fill="white"/>
<circle cx="852.736" cy="359.634" r="0.87568" transform="rotate(84.9901 852.736 359.634)" fill="white"/>
<circle cx="857.175" cy="360.124" r="0.87568" transform="rotate(84.9901 857.175 360.124)" fill="white"/>
<circle cx="853.717" cy="350.757" r="0.87568" transform="rotate(84.9901 853.717 350.757)" fill="white"/>
<circle cx="856.181" cy="348.783" r="0.87568" transform="rotate(84.9901 856.181 348.783)" fill="white"/>
<circle cx="858.645" cy="346.809" r="0.87568" transform="rotate(84.9901 858.645 346.809)" fill="white"/>
<circle cx="860.083" cy="343.167" r="0.87568" transform="rotate(84.9901 860.083 343.167)" fill="white"/>
<circle cx="856.364" cy="340.856" r="0.87568" transform="rotate(84.9901 856.364 340.856)" fill="white"/>
<circle cx="858.752" cy="338.009" r="0.87568" transform="rotate(84.9901 858.752 338.009)" fill="white"/>
<circle cx="861.522" cy="339.524" r="0.87568" transform="rotate(84.9901 861.522 339.524)" fill="white"/>
<circle cx="865.241" cy="341.836" r="0.87568" transform="rotate(84.9901 865.241 341.836)" fill="white"/>
<circle cx="858.154" cy="351.247" r="0.87568" transform="rotate(84.9901 858.154 351.247)" fill="white"/>
<circle cx="861.415" cy="348.324" r="0.87568" transform="rotate(84.9901 861.415 348.324)" fill="white"/>
<circle cx="864.675" cy="345.401" r="0.87568" transform="rotate(84.9901 864.675 345.401)" fill="white"/>
<circle cx="869.832" cy="344.07" r="0.87568" transform="rotate(84.9901 869.832 344.07)" fill="white"/>
<circle cx="875.295" cy="346.229" r="0.87568" transform="rotate(84.9901 875.295 346.229)" fill="white"/>
<circle cx="873.857" cy="349.871" r="0.87568" transform="rotate(84.9901 873.857 349.871)" fill="white"/>
<circle cx="872.418" cy="353.513" r="0.87568" transform="rotate(84.9901 872.418 353.513)" fill="white"/>
<circle cx="872.392" cy="336.172" r="0.87568" transform="rotate(129.135 872.392 336.172)" fill="white"/>
<circle cx="866.786" cy="336.126" r="0.87568" transform="rotate(129.135 866.786 336.126)" fill="white"/>
<circle cx="861.178" cy="336.079" r="0.87568" transform="rotate(129.135 861.178 336.079)" fill="white"/>
<circle cx="858.335" cy="332.637" r="0.87568" transform="rotate(129.135 858.335 332.637)" fill="white"/>
<circle cx="853.96" cy="332.463" r="0.87568" transform="rotate(129.135 853.96 332.463)" fill="white"/>
<circle cx="856.803" cy="335.906" r="0.87568" transform="rotate(129.135 856.803 335.906)" fill="white"/>
<circle cx="860.846" cy="326.776" r="0.87568" transform="rotate(129.135 860.846 326.776)" fill="white"/>
<circle cx="863.989" cy="327.076" r="0.87568" transform="rotate(129.135 863.989 327.076)" fill="white"/>
<circle cx="867.131" cy="327.376" r="0.87568" transform="rotate(129.135 867.131 327.376)" fill="white"/>
<circle cx="870.701" cy="325.764" r="0.87568" transform="rotate(129.135 870.701 325.764)" fill="white"/>
<circle cx="869.642" cy="321.516" r="0.87568" transform="rotate(129.135 869.642 321.516)" fill="white"/>
<circle cx="873.337" cy="321.136" r="0.87568" transform="rotate(129.135 873.337 321.136)" fill="white"/>
<circle cx="874.27" cy="324.153" r="0.87568" transform="rotate(129.135 874.27 324.153)" fill="white"/>
<circle cx="875.329" cy="328.401" r="0.87568" transform="rotate(129.135 875.329 328.401)" fill="white"/>
<circle cx="863.689" cy="330.219" r="0.87568" transform="rotate(129.135 863.689 330.219)" fill="white"/>
<circle cx="868.064" cy="330.392" r="0.87568" transform="rotate(129.135 868.064 330.392)" fill="white"/>
<circle cx="872.439" cy="330.566" r="0.87568" transform="rotate(129.135 872.439 330.566)" fill="white"/>
<circle cx="877.067" cy="333.202" r="0.87568" transform="rotate(129.135 877.067 333.202)" fill="white"/>
<circle cx="879.484" cy="338.556" r="0.87568" transform="rotate(129.135 879.484 338.556)" fill="white"/>
<circle cx="875.915" cy="340.168" r="0.87568" transform="rotate(129.135 875.915 340.168)" fill="white"/>
<circle cx="872.346" cy="341.779" r="0.87568" transform="rotate(129.135 872.346 341.779)" fill="white"/>
<circle cx="841.043" cy="355.718" r="0.87568" transform="rotate(-178.339 841.043 355.718)" fill="white"/>
<circle cx="837.669" cy="351.24" r="0.87568" transform="rotate(-178.339 837.669 351.24)" fill="white"/>
<circle cx="834.295" cy="346.762" r="0.87568" transform="rotate(-178.339 834.295 346.762)" fill="white"/>
<circle cx="835.297" cy="342.411" r="0.87568" transform="rotate(-178.339 835.297 342.411)" fill="white"/>
<circle cx="832.772" cy="338.834" r="0.87568" transform="rotate(-178.339 832.772 338.834)" fill="white"/>
<circle cx="831.77" cy="343.185" r="0.87568" transform="rotate(-178.339 831.77 343.185)" fill="white"/>
<circle cx="841.474" cy="340.838" r="0.87568" transform="rotate(-178.339 841.474 340.838)" fill="white"/>
<circle cx="843.149" cy="343.515" r="0.87568" transform="rotate(-178.339 843.149 343.515)" fill="white"/>
<circle cx="844.823" cy="346.192" r="0.87568" transform="rotate(-178.339 844.823 346.192)" fill="white"/>
<circle cx="848.274" cy="348.044" r="0.87568" transform="rotate(-178.339 848.274 348.044)" fill="white"/>
<circle cx="851.002" cy="344.619" r="0.87568" transform="rotate(-178.339 851.002 344.619)" fill="white"/>
<circle cx="853.551" cy="347.32" r="0.87568" transform="rotate(-178.339 853.551 347.32)" fill="white"/>
<circle cx="851.724" cy="349.896" r="0.87568" transform="rotate(-178.339 851.724 349.896)" fill="white"/>
<circle cx="848.997" cy="353.321" r="0.87568" transform="rotate(-178.339 848.997 353.321)" fill="white"/>
<circle cx="840.472" cy="345.19" r="0.87568" transform="rotate(-178.339 840.472 345.19)" fill="white"/>
<circle cx="842.997" cy="348.767" r="0.87568" transform="rotate(-178.339 842.997 348.767)" fill="white"/>
<circle cx="845.521" cy="352.344" r="0.87568" transform="rotate(-178.339 845.521 352.344)" fill="white"/>
<circle cx="846.244" cy="357.622" r="0.87568" transform="rotate(-178.339 846.244 357.622)" fill="white"/>
<circle cx="843.466" cy="362.797" r="0.87568" transform="rotate(-178.339 843.466 362.797)" fill="white"/>
<circle cx="840.015" cy="360.945" r="0.87568" transform="rotate(-178.339 840.015 360.945)" fill="white"/>
<circle cx="836.565" cy="359.093" r="0.87568" transform="rotate(-178.339 836.565 359.093)" fill="white"/>
<circle cx="823.559" cy="322.375" r="0.87568" transform="rotate(-40.4598 823.559 322.375)" fill="white"/>
<circle cx="829.065" cy="323.433" r="0.87568" transform="rotate(-40.4598 829.065 323.433)" fill="white"/>
<circle cx="834.57" cy="324.492" r="0.87568" transform="rotate(-40.4598 834.57 324.492)" fill="white"/>
<circle cx="836.746" cy="328.391" r="0.87568" transform="rotate(-40.4598 836.746 328.391)" fill="white"/>
<circle cx="841.018" cy="329.351" r="0.87568" transform="rotate(-40.4598 841.018 329.351)" fill="white"/>
<circle cx="838.843" cy="325.452" r="0.87568" transform="rotate(-40.4598 838.843 325.452)" fill="white"/>
<circle cx="833.218" cy="333.701" r="0.87568" transform="rotate(-40.4598 833.218 333.701)" fill="white"/>
<circle cx="830.181" cy="332.839" r="0.87568" transform="rotate(-40.4598 830.181 332.839)" fill="white"/>
<circle cx="827.144" cy="331.976" r="0.87568" transform="rotate(-40.4598 827.144 331.976)" fill="white"/>
<circle cx="823.343" cy="332.917" r="0.87568" transform="rotate(-40.4598 823.343 332.917)" fill="white"/>
<circle cx="823.616" cy="337.286" r="0.87568" transform="rotate(-40.4598 823.616 337.286)" fill="white"/>
<circle cx="819.913" cy="336.993" r="0.87568" transform="rotate(-40.4598 819.913 336.993)" fill="white"/>
<circle cx="819.541" cy="333.857" r="0.87568" transform="rotate(-40.4598 819.541 333.857)" fill="white"/>
<circle cx="819.267" cy="329.488" r="0.87568" transform="rotate(-40.4598 819.267 329.488)" fill="white"/>
<circle cx="831.043" cy="329.802" r="0.87568" transform="rotate(-40.4598 831.043 329.802)" fill="white"/>
<circle cx="826.772" cy="328.841" r="0.87568" transform="rotate(-40.4598 826.772 328.841)" fill="white"/>
<circle cx="822.5" cy="327.881" r="0.87568" transform="rotate(-40.4598 822.5 327.881)" fill="white"/>
<circle cx="818.424" cy="324.452" r="0.87568" transform="rotate(-40.4598 818.424 324.452)" fill="white"/>
<circle cx="817.014" cy="318.749" r="0.87568" transform="rotate(-40.4598 817.014 318.749)" fill="white"/>
<circle cx="820.815" cy="317.809" r="0.87568" transform="rotate(-40.4598 820.815 317.809)" fill="white"/>
<circle cx="824.616" cy="316.868" r="0.87568" transform="rotate(-40.4598 824.616 316.868)" fill="white"/>
<circle cx="810.505" cy="326.946" r="0.87568" transform="rotate(3.68517 810.505 326.946)" fill="white"/>
<circle cx="813.719" cy="331.541" r="0.87568" transform="rotate(3.68517 813.719 331.541)" fill="white"/>
<circle cx="816.933" cy="336.135" r="0.87568" transform="rotate(3.68517 816.933 336.135)" fill="white"/>
<circle cx="815.778" cy="340.448" r="0.87568" transform="rotate(3.68517 815.778 340.448)" fill="white"/>
<circle cx="818.174" cy="344.113" r="0.87568" transform="rotate(3.68517 818.174 344.113)" fill="white"/>
<circle cx="819.329" cy="339.8" r="0.87568" transform="rotate(3.68517 819.329 339.8)" fill="white"/>
<circle cx="809.548" cy="341.802" r="0.87568" transform="rotate(3.68517 809.548 341.802)" fill="white"/>
<circle cx="807.969" cy="339.068" r="0.87568" transform="rotate(3.68517 807.969 339.068)" fill="white"/>
<circle cx="806.39" cy="336.334" r="0.87568" transform="rotate(3.68517 806.39 336.334)" fill="white"/>
<circle cx="803.007" cy="334.361" r="0.87568" transform="rotate(3.68517 803.007 334.361)" fill="white"/>
<circle cx="800.16" cy="337.687" r="0.87568" transform="rotate(3.68517 800.16 337.687)" fill="white"/>
<circle cx="797.707" cy="334.897" r="0.87568" transform="rotate(3.68517 797.707 334.897)" fill="white"/>
<circle cx="799.624" cy="332.388" r="0.87568" transform="rotate(3.68517 799.624 332.388)" fill="white"/>
<circle cx="802.471" cy="329.061" r="0.87568" transform="rotate(3.68517 802.471 329.061)" fill="white"/>
<circle cx="810.703" cy="337.489" r="0.87568" transform="rotate(3.68517 810.703 337.489)" fill="white"/>
<circle cx="808.307" cy="333.825" r="0.87568" transform="rotate(3.68517 808.307 333.825)" fill="white"/>
<circle cx="805.91" cy="330.161" r="0.87568" transform="rotate(3.68517 805.91 330.161)" fill="white"/>
<circle cx="805.374" cy="324.861" r="0.87568" transform="rotate(3.68517 805.374 324.861)" fill="white"/>
<circle cx="808.333" cy="319.787" r="0.87568" transform="rotate(3.68517 808.333 319.787)" fill="white"/>
<circle cx="811.716" cy="321.759" r="0.87568" transform="rotate(3.68517 811.716 321.759)" fill="white"/>
<circle cx="815.1" cy="323.732" r="0.87568" transform="rotate(3.68517 815.1 323.732)" fill="white"/>
<circle cx="844.611" cy="341.149" r="0.87568" transform="rotate(56.2108 844.611 341.149)" fill="white"/>
<circle cx="842.92" cy="346.495" r="0.87568" transform="rotate(56.2108 842.92 346.495)" fill="white"/>
<circle cx="841.229" cy="351.841" r="0.87568" transform="rotate(56.2108 841.229 351.841)" fill="white"/>
<circle cx="837.103" cy="353.548" r="0.87568" transform="rotate(56.2108 837.103 353.548)" fill="white"/>
<circle cx="835.653" cy="357.679" r="0.87568" transform="rotate(56.2108 835.653 357.679)" fill="white"/>
<circle cx="839.779" cy="355.972" r="0.87568" transform="rotate(56.2108 839.779 355.972)" fill="white"/>
<circle cx="832.239" cy="349.428" r="0.87568" transform="rotate(56.2108 832.239 349.428)" fill="white"/>
<circle cx="833.448" cy="346.511" r="0.87568" transform="rotate(56.2108 833.448 346.511)" fill="white"/>
<circle cx="834.658" cy="343.595" r="0.87568" transform="rotate(56.2108 834.658 343.595)" fill="white"/>
<circle cx="834.164" cy="339.709" r="0.87568" transform="rotate(56.2108 834.164 339.709)" fill="white"/>
<circle cx="829.792" cy="339.474" r="0.87568" transform="rotate(56.2108 829.792 339.474)" fill="white"/>
<circle cx="830.515" cy="335.83" r="0.87568" transform="rotate(56.2108 830.515 335.83)" fill="white"/>
<circle cx="833.672" cy="335.825" r="0.87568" transform="rotate(56.2108 833.672 335.825)" fill="white"/>
<circle cx="838.044" cy="336.06" r="0.87568" transform="rotate(56.2108 838.044 336.06)" fill="white"/>
<circle cx="836.365" cy="347.72" r="0.87568" transform="rotate(56.2108 836.365 347.72)" fill="white"/>
<circle cx="837.815" cy="343.589" r="0.87568" transform="rotate(56.2108 837.815 343.589)" fill="white"/>
<circle cx="839.264" cy="339.458" r="0.87568" transform="rotate(56.2108 839.264 339.458)" fill="white"/>
<circle cx="843.144" cy="335.808" r="0.87568" transform="rotate(56.2108 843.144 335.808)" fill="white"/>
<circle cx="848.972" cy="335.069" r="0.87568" transform="rotate(56.2108 848.972 335.069)" fill="white"/>
<circle cx="849.464" cy="338.955" r="0.87568" transform="rotate(56.2108 849.464 338.955)" fill="white"/>
<circle cx="849.956" cy="342.839" r="0.87568" transform="rotate(56.2108 849.956 342.839)" fill="white"/>
<circle cx="468.395" cy="296.526" r="0.87568" transform="rotate(-84.31 468.395 296.526)" fill="white"/>
<circle cx="473.099" cy="293.474" r="0.87568" transform="rotate(-84.31 473.099 293.474)" fill="white"/>
<circle cx="477.803" cy="290.422" r="0.87568" transform="rotate(-84.31 477.803 290.422)" fill="white"/>
<circle cx="482.072" cy="291.728" r="0.87568" transform="rotate(-84.31 482.072 291.728)" fill="white"/>
<circle cx="485.819" cy="289.462" r="0.87568" transform="rotate(-84.31 485.819 289.462)" fill="white"/>
<circle cx="481.549" cy="288.156" r="0.87568" transform="rotate(-84.31 481.549 288.156)" fill="white"/>
<circle cx="483.207" cy="298.002" r="0.87568" transform="rotate(-84.31 483.207 298.002)" fill="white"/>
<circle cx="480.42" cy="299.484" r="0.87568" transform="rotate(-84.31 480.42 299.484)" fill="white"/>
<circle cx="477.632" cy="300.966" r="0.87568" transform="rotate(-84.31 477.632 300.966)" fill="white"/>
<circle cx="475.542" cy="304.278" r="0.87568" transform="rotate(-84.31 475.542 304.278)" fill="white"/>
<circle cx="478.767" cy="307.239" r="0.87568" transform="rotate(-84.31 478.767 307.239)" fill="white"/>
<circle cx="475.893" cy="309.593" r="0.87568" transform="rotate(-84.31 475.893 309.593)" fill="white"/>
<circle cx="473.452" cy="307.59" r="0.87568" transform="rotate(-84.31 473.452 307.59)" fill="white"/>
<circle cx="470.227" cy="304.628" r="0.87568" transform="rotate(-84.31 470.227 304.628)" fill="white"/>
<circle cx="478.938" cy="296.696" r="0.87568" transform="rotate(-84.31 478.938 296.696)" fill="white"/>
<circle cx="475.192" cy="298.963" r="0.87568" transform="rotate(-84.31 475.192 298.963)" fill="white"/>
<circle cx="471.445" cy="301.23" r="0.87568" transform="rotate(-84.31 471.445 301.23)" fill="white"/>
<circle cx="466.131" cy="301.58" r="0.87568" transform="rotate(-84.31 466.131 301.58)" fill="white"/>
<circle cx="461.163" cy="298.445" r="0.87568" transform="rotate(-84.31 461.163 298.445)" fill="white"/>
<circle cx="463.253" cy="295.133" r="0.87568" transform="rotate(-84.31 463.253 295.133)" fill="white"/>
<circle cx="465.343" cy="291.821" r="0.87568" transform="rotate(-84.31 465.343 291.821)" fill="white"/>
<circle cx="462.148" cy="308.866" r="0.87568" transform="rotate(-40.165 462.148 308.866)" fill="white"/>
<circle cx="467.649" cy="309.952" r="0.87568" transform="rotate(-40.165 467.649 309.952)" fill="white"/>
<circle cx="473.15" cy="311.039" r="0.87568" transform="rotate(-40.165 473.15 311.039)" fill="white"/>
<circle cx="475.304" cy="314.95" r="0.87568" transform="rotate(-40.165 475.304 314.95)" fill="white"/>
<circle cx="479.572" cy="315.932" r="0.87568" transform="rotate(-40.165 479.572 315.932)" fill="white"/>
<circle cx="477.417" cy="312.021" r="0.87568" transform="rotate(-40.165 477.417 312.021)" fill="white"/>
<circle cx="471.75" cy="320.242" r="0.87568" transform="rotate(-40.165 471.75 320.242)" fill="white"/>
<circle cx="468.717" cy="319.364" r="0.87568" transform="rotate(-40.165 468.717 319.364)" fill="white"/>
<circle cx="465.684" cy="318.486" r="0.87568" transform="rotate(-40.165 465.684 318.486)" fill="white"/>
<circle cx="461.878" cy="319.407" r="0.87568" transform="rotate(-40.165 461.878 319.407)" fill="white"/>
<circle cx="462.129" cy="323.778" r="0.87568" transform="rotate(-40.165 462.129 323.778)" fill="white"/>
<circle cx="458.427" cy="323.465" r="0.87568" transform="rotate(-40.165 458.427 323.465)" fill="white"/>
<circle cx="458.072" cy="320.328" r="0.87568" transform="rotate(-40.165 458.072 320.328)" fill="white"/>
<circle cx="457.82" cy="315.956" r="0.87568" transform="rotate(-40.165 457.82 315.956)" fill="white"/>
<circle cx="469.595" cy="316.331" r="0.87568" transform="rotate(-40.165 469.595 316.331)" fill="white"/>
<circle cx="465.329" cy="315.349" r="0.87568" transform="rotate(-40.165 465.329 315.349)" fill="white"/>
<circle cx="461.061" cy="314.367" r="0.87568" transform="rotate(-40.165 461.061 314.367)" fill="white"/>
<circle cx="457.004" cy="310.916" r="0.87568" transform="rotate(-40.165 457.004 310.916)" fill="white"/>
<circle cx="455.623" cy="305.206" r="0.87568" transform="rotate(-40.165 455.623 305.206)" fill="white"/>
<circle cx="459.428" cy="304.286" r="0.87568" transform="rotate(-40.165 459.428 304.286)" fill="white"/>
<circle cx="463.235" cy="303.365" r="0.87568" transform="rotate(-40.165 463.235 303.365)" fill="white"/>
<circle cx="496.582" cy="295.48" r="0.87568" transform="rotate(12.3606 496.582 295.48)" fill="white"/>
<circle cx="499.066" cy="300.507" r="0.87568" transform="rotate(12.3606 499.066 300.507)" fill="white"/>
<circle cx="501.551" cy="305.534" r="0.87568" transform="rotate(12.3606 501.551 305.534)" fill="white"/>
<circle cx="499.758" cy="309.623" r="0.87568" transform="rotate(12.3606 499.758 309.623)" fill="white"/>
<circle cx="501.574" cy="313.607" r="0.87568" transform="rotate(12.3606 501.574 313.607)" fill="white"/>
<circle cx="503.367" cy="309.517" r="0.87568" transform="rotate(12.3606 503.367 309.517)" fill="white"/>
<circle cx="493.395" cy="310.021" r="0.87568" transform="rotate(12.3606 493.395 310.021)" fill="white"/>
<circle cx="492.247" cy="307.08" r="0.87568" transform="rotate(12.3606 492.247 307.08)" fill="white"/>
<circle cx="491.099" cy="304.14" r="0.87568" transform="rotate(12.3606 491.099 304.14)" fill="white"/>
<circle cx="488.052" cy="301.679" r="0.87568" transform="rotate(12.3606 488.052 301.679)" fill="white"/>
<circle cx="484.736" cy="304.538" r="0.87568" transform="rotate(12.3606 484.736 304.538)" fill="white"/>
<circle cx="482.732" cy="301.41" r="0.87568" transform="rotate(12.3606 482.732 301.41)" fill="white"/>
<circle cx="485.006" cy="299.218" r="0.87568" transform="rotate(12.3606 485.006 299.218)" fill="white"/>
<circle cx="488.321" cy="296.359" r="0.87568" transform="rotate(12.3606 488.321 296.359)" fill="white"/>
<circle cx="495.188" cy="305.932" r="0.87568" transform="rotate(12.3606 495.188 305.932)" fill="white"/>
<circle cx="493.372" cy="301.948" r="0.87568" transform="rotate(12.3606 493.372 301.948)" fill="white"/>
<circle cx="491.556" cy="297.964" r="0.87568" transform="rotate(12.3606 491.556 297.964)" fill="white"/>
<circle cx="491.825" cy="292.644" r="0.87568" transform="rotate(12.3606 491.825 292.644)" fill="white"/>
<circle cx="495.516" cy="288.075" r="0.87568" transform="rotate(12.3606 495.516 288.075)" fill="white"/>
<circle cx="498.562" cy="290.535" r="0.87568" transform="rotate(12.3606 498.562 290.535)" fill="white"/>
<circle cx="501.609" cy="292.996" r="0.87568" transform="rotate(12.3606 501.609 292.996)" fill="white"/>
<circle cx="507.572" cy="331.489" r="0.87568" transform="rotate(150.24 507.572 331.489)" fill="white"/>
<circle cx="502.358" cy="329.427" r="0.87568" transform="rotate(150.24 502.358 329.427)" fill="white"/>
<circle cx="497.144" cy="327.365" r="0.87568" transform="rotate(150.24 497.144 327.365)" fill="white"/>
<circle cx="495.731" cy="323.13" r="0.87568" transform="rotate(150.24 495.731 323.13)" fill="white"/>
<circle cx="491.711" cy="321.393" r="0.87568" transform="rotate(150.24 491.711 321.393)" fill="white"/>
<circle cx="493.125" cy="325.629" r="0.87568" transform="rotate(150.24 493.125 325.629)" fill="white"/>
<circle cx="500.183" cy="318.567" r="0.87568" transform="rotate(150.24 500.183 318.567)" fill="white"/>
<circle cx="503.007" cy="319.978" r="0.87568" transform="rotate(150.24 503.007 319.978)" fill="white"/>
<circle cx="505.832" cy="321.389" r="0.87568" transform="rotate(150.24 505.832 321.389)" fill="white"/>
<circle cx="509.742" cy="321.171" r="0.87568" transform="rotate(150.24 509.742 321.171)" fill="white"/>
<circle cx="510.284" cy="316.826" r="0.87568" transform="rotate(150.24 510.284 316.826)" fill="white"/>
<circle cx="513.869" cy="317.802" r="0.87568" transform="rotate(150.24 513.869 317.802)" fill="white"/>
<circle cx="513.652" cy="320.952" r="0.87568" transform="rotate(150.24 513.652 320.952)" fill="white"/>
<circle cx="513.11" cy="325.297" r="0.87568" transform="rotate(150.24 513.11 325.297)" fill="white"/>
<circle cx="501.596" cy="322.802" r="0.87568" transform="rotate(150.24 501.596 322.802)" fill="white"/>
<circle cx="505.615" cy="324.539" r="0.87568" transform="rotate(150.24 505.615 324.539)" fill="white"/>
<circle cx="509.634" cy="326.276" r="0.87568" transform="rotate(150.24 509.634 326.276)" fill="white"/>
<circle cx="513.002" cy="330.402" r="0.87568" transform="rotate(150.24 513.002 330.402)" fill="white"/>
<circle cx="513.33" cy="336.267" r="0.87568" transform="rotate(150.24 513.33 336.267)" fill="white"/>
<circle cx="509.419" cy="336.486" r="0.87568" transform="rotate(150.24 509.419 336.486)" fill="white"/>
<circle cx="505.509" cy="336.704" r="0.87568" transform="rotate(150.24 505.509 336.704)" fill="white"/>
<circle cx="521.247" cy="329.421" r="0.87568" transform="rotate(-165.615 521.247 329.421)" fill="white"/>
<circle cx="518.943" cy="324.31" r="0.87568" transform="rotate(-165.615 518.943 324.31)" fill="white"/>
<circle cx="516.637" cy="319.198" r="0.87568" transform="rotate(-165.615 516.637 319.198)" fill="white"/>
<circle cx="518.573" cy="315.175" r="0.87568" transform="rotate(-165.615 518.573 315.175)" fill="white"/>
<circle cx="516.899" cy="311.129" r="0.87568" transform="rotate(-165.615 516.899 311.129)" fill="white"/>
<circle cx="514.962" cy="315.153" r="0.87568" transform="rotate(-165.615 514.962 315.153)" fill="white"/>
<circle cx="524.945" cy="315.001" r="0.87568" transform="rotate(-165.615 524.945 315.001)" fill="white"/>
<circle cx="525.989" cy="317.981" r="0.87568" transform="rotate(-165.615 525.989 317.981)" fill="white"/>
<circle cx="527.033" cy="320.961" r="0.87568" transform="rotate(-165.615 527.033 320.961)" fill="white"/>
<circle cx="529.991" cy="323.527" r="0.87568" transform="rotate(-165.615 529.991 323.527)" fill="white"/>
<circle cx="533.405" cy="320.787" r="0.87568" transform="rotate(-165.615 533.405 320.787)" fill="white"/>
<circle cx="535.298" cy="323.985" r="0.87568" transform="rotate(-165.615 535.298 323.985)" fill="white"/>
<circle cx="532.949" cy="326.094" r="0.87568" transform="rotate(-165.615 532.949 326.094)" fill="white"/>
<circle cx="529.534" cy="328.834" r="0.87568" transform="rotate(-165.615 529.534 328.834)" fill="white"/>
<circle cx="523.01" cy="319.025" r="0.87568" transform="rotate(-165.615 523.01 319.025)" fill="white"/>
<circle cx="524.684" cy="323.07" r="0.87568" transform="rotate(-165.615 524.684 323.07)" fill="white"/>
<circle cx="526.359" cy="327.116" r="0.87568" transform="rotate(-165.615 526.359 327.116)" fill="white"/>
<circle cx="525.902" cy="332.423" r="0.87568" transform="rotate(-165.615 525.902 332.423)" fill="white"/>
<circle cx="522.052" cy="336.86" r="0.87568" transform="rotate(-165.615 522.052 336.86)" fill="white"/>
<circle cx="519.094" cy="334.293" r="0.87568" transform="rotate(-165.615 519.094 334.293)" fill="white"/>
<circle cx="516.136" cy="331.726" r="0.87568" transform="rotate(-165.615 516.136 331.726)" fill="white"/>
<circle cx="490.371" cy="309.134" r="0.87568" transform="rotate(-113.089 490.371 309.134)" fill="white"/>
<circle cx="493.025" cy="304.195" r="0.87568" transform="rotate(-113.089 493.025 304.195)" fill="white"/>
<circle cx="495.679" cy="299.255" r="0.87568" transform="rotate(-113.089 495.679 299.255)" fill="white"/>
<circle cx="500.05" cy="298.344" r="0.87568" transform="rotate(-113.089 500.05 298.344)" fill="white"/>
<circle cx="502.242" cy="294.554" r="0.87568" transform="rotate(-113.089 502.242 294.554)" fill="white"/>
<circle cx="497.871" cy="295.465" r="0.87568" transform="rotate(-113.089 497.871 295.465)" fill="white"/>
<circle cx="504.066" cy="303.296" r="0.87568" transform="rotate(-113.089 504.066 303.296)" fill="white"/>
<circle cx="502.335" cy="305.937" r="0.87568" transform="rotate(-113.089 502.335 305.937)" fill="white"/>
<circle cx="500.606" cy="308.579" r="0.87568" transform="rotate(-113.089 500.606 308.579)" fill="white"/>
<circle cx="500.368" cy="312.488" r="0.87568" transform="rotate(-113.089 500.368 312.488)" fill="white"/>
<circle cx="504.62" cy="313.53" r="0.87568" transform="rotate(-113.089 504.62 313.53)" fill="white"/>
<circle cx="503.234" cy="316.978" r="0.87568" transform="rotate(-113.089 503.234 316.978)" fill="white"/>
<circle cx="500.131" cy="316.396" r="0.87568" transform="rotate(-113.089 500.131 316.396)" fill="white"/>
<circle cx="495.879" cy="315.353" r="0.87568" transform="rotate(-113.089 495.879 315.353)" fill="white"/>
<circle cx="499.694" cy="304.207" r="0.87568" transform="rotate(-113.089 499.694 304.207)" fill="white"/>
<circle cx="497.502" cy="307.998" r="0.87568" transform="rotate(-113.089 497.502 307.998)" fill="white"/>
<circle cx="495.31" cy="311.788" r="0.87568" transform="rotate(-113.089 495.31 311.788)" fill="white"/>
<circle cx="490.821" cy="314.654" r="0.87568" transform="rotate(-113.089 490.821 314.654)" fill="white"/>
<circle cx="484.957" cy="314.298" r="0.87568" transform="rotate(-113.089 484.957 314.298)" fill="white"/>
<circle cx="485.195" cy="310.389" r="0.87568" transform="rotate(-113.089 485.195 310.389)" fill="white"/>
<circle cx="485.432" cy="306.48" r="0.87568" transform="rotate(-113.089 485.432 306.48)" fill="white"/>
<circle cx="278.272" cy="103.648" r="0.87568" transform="rotate(-84.31 278.272 103.648)" fill="white"/>
<circle cx="282.976" cy="100.596" r="0.87568" transform="rotate(-84.31 282.976 100.596)" fill="white"/>
<circle cx="287.68" cy="97.5446" r="0.87568" transform="rotate(-84.31 287.68 97.5446)" fill="white"/>
<circle cx="291.95" cy="98.8502" r="0.87568" transform="rotate(-84.31 291.95 98.8502)" fill="white"/>
<circle cx="295.695" cy="96.5831" r="0.87568" transform="rotate(-84.31 295.695 96.5831)" fill="white"/>
<circle cx="291.426" cy="95.278" r="0.87568" transform="rotate(-84.31 291.426 95.278)" fill="white"/>
<circle cx="293.085" cy="105.123" r="0.87568" transform="rotate(-84.31 293.085 105.123)" fill="white"/>
<circle cx="290.297" cy="106.606" r="0.87568" transform="rotate(-84.31 290.297 106.606)" fill="white"/>
<circle cx="287.509" cy="108.088" r="0.87568" transform="rotate(-84.31 287.509 108.088)" fill="white"/>
<circle cx="285.419" cy="111.4" r="0.87568" transform="rotate(-84.31 285.419 111.4)" fill="white"/>
<circle cx="288.645" cy="114.361" r="0.87568" transform="rotate(-84.31 288.645 114.361)" fill="white"/>
<circle cx="285.77" cy="116.714" r="0.87568" transform="rotate(-84.31 285.77 116.714)" fill="white"/>
<circle cx="283.329" cy="114.712" r="0.87568" transform="rotate(-84.31 283.329 114.712)" fill="white"/>
<circle cx="280.105" cy="111.75" r="0.87568" transform="rotate(-84.31 280.105 111.75)" fill="white"/>
<circle cx="288.815" cy="103.818" r="0.87568" transform="rotate(-84.31 288.815 103.818)" fill="white"/>
<circle cx="285.069" cy="106.085" r="0.87568" transform="rotate(-84.31 285.069 106.085)" fill="white"/>
<circle cx="281.322" cy="108.351" r="0.87568" transform="rotate(-84.31 281.322 108.351)" fill="white"/>
<circle cx="276.008" cy="108.702" r="0.87568" transform="rotate(-84.31 276.008 108.702)" fill="white"/>
<circle cx="271.04" cy="105.567" r="0.87568" transform="rotate(-84.31 271.04 105.567)" fill="white"/>
<circle cx="273.13" cy="102.255" r="0.87568" transform="rotate(-84.31 273.13 102.255)" fill="white"/>
<circle cx="275.22" cy="98.943" r="0.87568" transform="rotate(-84.31 275.22 98.943)" fill="white"/>
<circle cx="272.025" cy="115.987" r="0.87568" transform="rotate(-40.165 272.025 115.987)" fill="white"/>
<circle cx="277.526" cy="117.074" r="0.87568" transform="rotate(-40.165 277.526 117.074)" fill="white"/>
<circle cx="283.027" cy="118.161" r="0.87568" transform="rotate(-40.165 283.027 118.161)" fill="white"/>
<circle cx="285.181" cy="122.071" r="0.87568" transform="rotate(-40.165 285.181 122.071)" fill="white"/>
<circle cx="289.449" cy="123.054" r="0.87568" transform="rotate(-40.165 289.449 123.054)" fill="white"/>
<circle cx="287.294" cy="119.143" r="0.87568" transform="rotate(-40.165 287.294 119.143)" fill="white"/>
<circle cx="281.627" cy="127.363" r="0.87568" transform="rotate(-40.165 281.627 127.363)" fill="white"/>
<circle cx="278.594" cy="126.485" r="0.87568" transform="rotate(-40.165 278.594 126.485)" fill="white"/>
<circle cx="275.561" cy="125.607" r="0.87568" transform="rotate(-40.165 275.561 125.607)" fill="white"/>
<circle cx="271.755" cy="126.528" r="0.87568" transform="rotate(-40.165 271.755 126.528)" fill="white"/>
<circle cx="272.006" cy="130.899" r="0.87568" transform="rotate(-40.165 272.006 130.899)" fill="white"/>
<circle cx="268.304" cy="130.586" r="0.87568" transform="rotate(-40.165 268.304 130.586)" fill="white"/>
<circle cx="267.949" cy="127.449" r="0.87568" transform="rotate(-40.165 267.949 127.449)" fill="white"/>
<circle cx="267.697" cy="123.078" r="0.87568" transform="rotate(-40.165 267.697 123.078)" fill="white"/>
<circle cx="279.472" cy="123.453" r="0.87568" transform="rotate(-40.165 279.472 123.453)" fill="white"/>
<circle cx="275.206" cy="122.47" r="0.87568" transform="rotate(-40.165 275.206 122.47)" fill="white"/>
<circle cx="270.939" cy="121.488" r="0.87568" transform="rotate(-40.165 270.939 121.488)" fill="white"/>
<circle cx="266.88" cy="118.037" r="0.87568" transform="rotate(-40.165 266.88 118.037)" fill="white"/>
<circle cx="265.5" cy="112.328" r="0.87568" transform="rotate(-40.165 265.5 112.328)" fill="white"/>
<circle cx="269.305" cy="111.407" r="0.87568" transform="rotate(-40.165 269.305 111.407)" fill="white"/>
<circle cx="273.112" cy="110.486" r="0.87568" transform="rotate(-40.165 273.112 110.486)" fill="white"/>
<circle cx="306.459" cy="102.601" r="0.87568" transform="rotate(12.3606 306.459 102.601)" fill="white"/>
<circle cx="308.943" cy="107.628" r="0.87568" transform="rotate(12.3606 308.943 107.628)" fill="white"/>
<circle cx="311.428" cy="112.655" r="0.87568" transform="rotate(12.3606 311.428 112.655)" fill="white"/>
<circle cx="309.635" cy="116.744" r="0.87568" transform="rotate(12.3606 309.635 116.744)" fill="white"/>
<circle cx="311.451" cy="120.728" r="0.87568" transform="rotate(12.3606 311.451 120.728)" fill="white"/>
<circle cx="313.244" cy="116.639" r="0.87568" transform="rotate(12.3606 313.244 116.639)" fill="white"/>
<circle cx="303.272" cy="117.143" r="0.87568" transform="rotate(12.3606 303.272 117.143)" fill="white"/>
<circle cx="302.124" cy="114.202" r="0.87568" transform="rotate(12.3606 302.124 114.202)" fill="white"/>
<circle cx="300.976" cy="111.261" r="0.87568" transform="rotate(12.3606 300.976 111.261)" fill="white"/>
<circle cx="297.929" cy="108.8" r="0.87568" transform="rotate(12.3606 297.929 108.8)" fill="white"/>
<circle cx="294.613" cy="111.66" r="0.87568" transform="rotate(12.3606 294.613 111.66)" fill="white"/>
<circle cx="292.609" cy="108.531" r="0.87568" transform="rotate(12.3606 292.609 108.531)" fill="white"/>
<circle cx="294.882" cy="106.34" r="0.87568" transform="rotate(12.3606 294.882 106.34)" fill="white"/>
<circle cx="298.198" cy="103.481" r="0.87568" transform="rotate(12.3606 298.198 103.481)" fill="white"/>
<circle cx="305.065" cy="113.054" r="0.87568" transform="rotate(12.3606 305.065 113.054)" fill="white"/>
<circle cx="303.249" cy="109.07" r="0.87568" transform="rotate(12.3606 303.249 109.07)" fill="white"/>
<circle cx="301.433" cy="105.086" r="0.87568" transform="rotate(12.3606 301.433 105.086)" fill="white"/>
<circle cx="301.701" cy="99.766" r="0.87568" transform="rotate(12.3606 301.701 99.766)" fill="white"/>
<circle cx="305.393" cy="95.1962" r="0.87568" transform="rotate(12.3606 305.393 95.1962)" fill="white"/>
<circle cx="308.439" cy="97.6566" r="0.87568" transform="rotate(12.3606 308.439 97.6566)" fill="white"/>
<circle cx="311.485" cy="100.117" r="0.87568" transform="rotate(12.3606 311.485 100.117)" fill="white"/>
<circle cx="317.449" cy="138.612" r="0.87568" transform="rotate(150.24 317.449 138.612)" fill="white"/>
<circle cx="312.235" cy="136.55" r="0.87568" transform="rotate(150.24 312.235 136.55)" fill="white"/>
<circle cx="307.021" cy="134.488" r="0.87568" transform="rotate(150.24 307.021 134.488)" fill="white"/>
<circle cx="305.608" cy="130.252" r="0.87568" transform="rotate(150.24 305.608 130.252)" fill="white"/>
<circle cx="301.588" cy="128.515" r="0.87568" transform="rotate(150.24 301.588 128.515)" fill="white"/>
<circle cx="303.001" cy="132.751" r="0.87568" transform="rotate(150.24 303.001 132.751)" fill="white"/>
<circle cx="310.06" cy="125.689" r="0.87568" transform="rotate(150.24 310.06 125.689)" fill="white"/>
<circle cx="312.884" cy="127.1" r="0.87568" transform="rotate(150.24 312.884 127.1)" fill="white"/>
<circle cx="315.708" cy="128.511" r="0.87568" transform="rotate(150.24 315.708 128.511)" fill="white"/>
<circle cx="319.619" cy="128.293" r="0.87568" transform="rotate(150.24 319.619 128.293)" fill="white"/>
<circle cx="320.161" cy="123.948" r="0.87568" transform="rotate(150.24 320.161 123.948)" fill="white"/>
<circle cx="323.745" cy="124.925" r="0.87568" transform="rotate(150.24 323.745 124.925)" fill="white"/>
<circle cx="323.529" cy="128.075" r="0.87568" transform="rotate(150.24 323.529 128.075)" fill="white"/>
<circle cx="322.987" cy="132.42" r="0.87568" transform="rotate(150.24 322.987 132.42)" fill="white"/>
<circle cx="311.473" cy="129.924" r="0.87568" transform="rotate(150.24 311.473 129.924)" fill="white"/>
<circle cx="315.492" cy="131.661" r="0.87568" transform="rotate(150.24 315.492 131.661)" fill="white"/>
<circle cx="319.511" cy="133.399" r="0.87568" transform="rotate(150.24 319.511 133.399)" fill="white"/>
<circle cx="322.879" cy="137.525" r="0.87568" transform="rotate(150.24 322.879 137.525)" fill="white"/>
<circle cx="323.207" cy="143.39" r="0.87568" transform="rotate(150.24 323.207 143.39)" fill="white"/>
<circle cx="319.296" cy="143.608" r="0.87568" transform="rotate(150.24 319.296 143.608)" fill="white"/>
<circle cx="315.386" cy="143.826" r="0.87568" transform="rotate(150.24 315.386 143.826)" fill="white"/>
<circle cx="331.124" cy="136.544" r="0.87568" transform="rotate(-165.615 331.124 136.544)" fill="white"/>
<circle cx="328.82" cy="131.432" r="0.87568" transform="rotate(-165.615 328.82 131.432)" fill="white"/>
<circle cx="326.514" cy="126.321" r="0.87568" transform="rotate(-165.615 326.514 126.321)" fill="white"/>
<circle cx="328.45" cy="122.298" r="0.87568" transform="rotate(-165.615 328.45 122.298)" fill="white"/>
<circle cx="326.776" cy="118.252" r="0.87568" transform="rotate(-165.615 326.776 118.252)" fill="white"/>
<circle cx="324.839" cy="122.276" r="0.87568" transform="rotate(-165.615 324.839 122.276)" fill="white"/>
<circle cx="334.822" cy="122.124" r="0.87568" transform="rotate(-165.615 334.822 122.124)" fill="white"/>
<circle cx="335.866" cy="125.104" r="0.87568" transform="rotate(-165.615 335.866 125.104)" fill="white"/>
<circle cx="336.91" cy="128.083" r="0.87568" transform="rotate(-165.615 336.91 128.083)" fill="white"/>
<circle cx="339.868" cy="130.65" r="0.87568" transform="rotate(-165.615 339.868 130.65)" fill="white"/>
<circle cx="343.282" cy="127.91" r="0.87568" transform="rotate(-165.615 343.282 127.91)" fill="white"/>
<circle cx="345.175" cy="131.107" r="0.87568" transform="rotate(-165.615 345.175 131.107)" fill="white"/>
<circle cx="342.826" cy="133.217" r="0.87568" transform="rotate(-165.615 342.826 133.217)" fill="white"/>
<circle cx="339.411" cy="135.957" r="0.87568" transform="rotate(-165.615 339.411 135.957)" fill="white"/>
<circle cx="332.887" cy="126.147" r="0.87568" transform="rotate(-165.615 332.887 126.147)" fill="white"/>
<circle cx="334.561" cy="130.193" r="0.87568" transform="rotate(-165.615 334.561 130.193)" fill="white"/>
<circle cx="336.236" cy="134.238" r="0.87568" transform="rotate(-165.615 336.236 134.238)" fill="white"/>
<circle cx="335.779" cy="139.546" r="0.87568" transform="rotate(-165.615 335.779 139.546)" fill="white"/>
<circle cx="331.929" cy="143.982" r="0.87568" transform="rotate(-165.615 331.929 143.982)" fill="white"/>
<circle cx="328.971" cy="141.415" r="0.87568" transform="rotate(-165.615 328.971 141.415)" fill="white"/>
<circle cx="326.013" cy="138.849" r="0.87568" transform="rotate(-165.615 326.013 138.849)" fill="white"/>
<circle cx="300.248" cy="116.256" r="0.87568" transform="rotate(-113.089 300.248 116.256)" fill="white"/>
<circle cx="302.902" cy="111.317" r="0.87568" transform="rotate(-113.089 302.902 111.317)" fill="white"/>
<circle cx="305.556" cy="106.378" r="0.87568" transform="rotate(-113.089 305.556 106.378)" fill="white"/>
<circle cx="309.927" cy="105.467" r="0.87568" transform="rotate(-113.089 309.927 105.467)" fill="white"/>
<circle cx="312.119" cy="101.676" r="0.87568" transform="rotate(-113.089 312.119 101.676)" fill="white"/>
<circle cx="307.748" cy="102.588" r="0.87568" transform="rotate(-113.089 307.748 102.588)" fill="white"/>
<circle cx="313.943" cy="110.418" r="0.87568" transform="rotate(-113.089 313.943 110.418)" fill="white"/>
<circle cx="312.212" cy="113.06" r="0.87568" transform="rotate(-113.089 312.212 113.06)" fill="white"/>
<circle cx="310.483" cy="115.701" r="0.87568" transform="rotate(-113.089 310.483 115.701)" fill="white"/>
<circle cx="310.245" cy="119.61" r="0.87568" transform="rotate(-113.089 310.245 119.61)" fill="white"/>
<circle cx="314.497" cy="120.653" r="0.87568" transform="rotate(-113.089 314.497 120.653)" fill="white"/>
<circle cx="313.111" cy="124.1" r="0.87568" transform="rotate(-113.089 313.111 124.1)" fill="white"/>
<circle cx="310.008" cy="123.519" r="0.87568" transform="rotate(-113.089 310.008 123.519)" fill="white"/>
<circle cx="305.755" cy="122.476" r="0.87568" transform="rotate(-113.089 305.755 122.476)" fill="white"/>
<circle cx="309.571" cy="111.33" r="0.87568" transform="rotate(-113.089 309.571 111.33)" fill="white"/>
<circle cx="307.379" cy="115.12" r="0.87568" transform="rotate(-113.089 307.379 115.12)" fill="white"/>
<circle cx="305.187" cy="118.911" r="0.87568" transform="rotate(-113.089 305.187 118.911)" fill="white"/>
<circle cx="300.697" cy="121.776" r="0.87568" transform="rotate(-113.089 300.697 121.776)" fill="white"/>
<circle cx="294.834" cy="121.42" r="0.87568" transform="rotate(-113.089 294.834 121.42)" fill="white"/>
<circle cx="295.072" cy="117.511" r="0.87568" transform="rotate(-113.089 295.072 117.511)" fill="white"/>
<circle cx="295.309" cy="113.603" r="0.87568" transform="rotate(-113.089 295.309 113.603)" fill="white"/>
<circle cx="147.452" cy="232.857" r="0.87568" transform="rotate(-70.2332 147.452 232.857)" fill="white"/>
<circle cx="152.757" cy="231.041" r="0.87568" transform="rotate(-70.2332 152.757 231.041)" fill="white"/>
<circle cx="158.062" cy="229.225" r="0.87568" transform="rotate(-70.2332 158.062 229.225)" fill="white"/>
<circle cx="161.886" cy="231.531" r="0.87568" transform="rotate(-70.2332 161.886 231.531)" fill="white"/>
<circle cx="166.07" cy="230.243" r="0.87568" transform="rotate(-70.2332 166.07 230.243)" fill="white"/>
<circle cx="162.247" cy="227.938" r="0.87568" transform="rotate(-70.2332 162.247 227.938)" fill="white"/>
<circle cx="161.461" cy="237.891" r="0.87568" transform="rotate(-70.2332 161.461 237.891)" fill="white"/>
<circle cx="158.397" cy="238.651" r="0.87568" transform="rotate(-70.2332 158.397 238.651)" fill="white"/>
<circle cx="155.332" cy="239.411" r="0.87568" transform="rotate(-70.2332 155.332 239.411)" fill="white"/>
<circle cx="152.499" cy="242.115" r="0.87568" transform="rotate(-70.2332 152.499 242.115)" fill="white"/>
<circle cx="154.907" cy="245.772" r="0.87568" transform="rotate(-70.2332 154.907 245.772)" fill="white"/>
<circle cx="151.547" cy="247.355" r="0.87568" transform="rotate(-70.2332 151.547 247.355)" fill="white"/>
<circle cx="149.667" cy="244.819" r="0.87568" transform="rotate(-70.2332 149.667 244.819)" fill="white"/>
<circle cx="147.259" cy="241.162" r="0.87568" transform="rotate(-70.2332 147.259 241.162)" fill="white"/>
<circle cx="157.637" cy="235.587" r="0.87568" transform="rotate(-70.2332 157.637 235.587)" fill="white"/>
<circle cx="153.452" cy="236.874" r="0.87568" transform="rotate(-70.2332 153.452 236.874)" fill="white"/>
<circle cx="149.268" cy="238.162" r="0.87568" transform="rotate(-70.2332 149.268 238.162)" fill="white"/>
<circle cx="144.026" cy="237.209" r="0.87568" transform="rotate(-70.2332 144.026 237.209)" fill="white"/>
<circle cx="139.971" cy="232.96" r="0.87568" transform="rotate(-70.2332 139.971 232.96)" fill="white"/>
<circle cx="142.804" cy="230.256" r="0.87568" transform="rotate(-70.2332 142.804 230.256)" fill="white"/>
<circle cx="145.636" cy="227.552" r="0.87568" transform="rotate(-70.2332 145.636 227.552)" fill="white"/>
<circle cx="138.391" cy="243.307" r="0.87568" transform="rotate(-26.0882 138.391 243.307)" fill="white"/>
<circle cx="143.463" cy="245.699" r="0.87568" transform="rotate(-26.0882 143.463 245.699)" fill="white"/>
<circle cx="148.535" cy="248.091" r="0.87568" transform="rotate(-26.0882 148.535 248.091)" fill="white"/>
<circle cx="149.674" cy="252.408" r="0.87568" transform="rotate(-26.0882 149.674 252.408)" fill="white"/>
<circle cx="153.573" cy="254.399" r="0.87568" transform="rotate(-26.0882 153.573 254.399)" fill="white"/>
<circle cx="152.434" cy="250.081" r="0.87568" transform="rotate(-26.0882 152.434 250.081)" fill="white"/>
<circle cx="144.938" cy="256.677" r="0.87568" transform="rotate(-26.0882 144.938 256.677)" fill="white"/>
<circle cx="142.21" cy="255.087" r="0.87568" transform="rotate(-26.0882 142.21 255.087)" fill="white"/>
<circle cx="139.482" cy="253.498" r="0.87568" transform="rotate(-26.0882 139.482 253.498)" fill="white"/>
<circle cx="135.565" cy="253.466" r="0.87568" transform="rotate(-26.0882 135.565 253.466)" fill="white"/>
<circle cx="134.747" cy="257.767" r="0.87568" transform="rotate(-26.0882 134.747 257.767)" fill="white"/>
<circle cx="131.232" cy="256.562" r="0.87568" transform="rotate(-26.0882 131.232 256.562)" fill="white"/>
<circle cx="131.65" cy="253.433" r="0.87568" transform="rotate(-26.0882 131.65 253.433)" fill="white"/>
<circle cx="132.468" cy="249.132" r="0.87568" transform="rotate(-26.0882 132.468 249.132)" fill="white"/>
<circle cx="143.799" cy="252.359" r="0.87568" transform="rotate(-26.0882 143.799 252.359)" fill="white"/>
<circle cx="139.899" cy="250.369" r="0.87568" transform="rotate(-26.0882 139.899 250.369)" fill="white"/>
<circle cx="136" cy="248.378" r="0.87568" transform="rotate(-26.0882 136 248.378)" fill="white"/>
<circle cx="132.903" cy="244.044" r="0.87568" transform="rotate(-26.0882 132.903 244.044)" fill="white"/>
<circle cx="132.952" cy="238.17" r="0.87568" transform="rotate(-26.0882 132.952 238.17)" fill="white"/>
<circle cx="136.868" cy="238.203" r="0.87568" transform="rotate(-26.0882 136.868 238.203)" fill="white"/>
<circle cx="140.784" cy="238.235" r="0.87568" transform="rotate(-26.0882 140.784 238.235)" fill="white"/>
<circle cx="175.048" cy="238.698" r="0.87568" transform="rotate(26.4374 175.048 238.698)" fill="white"/>
<circle cx="176.235" cy="244.178" r="0.87568" transform="rotate(26.4374 176.235 244.178)" fill="white"/>
<circle cx="177.422" cy="249.658" r="0.87568" transform="rotate(26.4374 177.422 249.658)" fill="white"/>
<circle cx="174.688" cy="253.189" r="0.87568" transform="rotate(26.4374 174.688 253.189)" fill="white"/>
<circle cx="175.481" cy="257.495" r="0.87568" transform="rotate(26.4374 175.481 257.495)" fill="white"/>
<circle cx="178.215" cy="253.964" r="0.87568" transform="rotate(26.4374 178.215 253.964)" fill="white"/>
<circle cx="168.42" cy="252.027" r="0.87568" transform="rotate(26.4374 168.42 252.027)" fill="white"/>
<circle cx="168.021" cy="248.896" r="0.87568" transform="rotate(26.4374 168.021 248.896)" fill="white"/>
<circle cx="167.623" cy="245.764" r="0.87568" transform="rotate(26.4374 167.623 245.764)" fill="white"/>
<circle cx="165.266" cy="242.636" r="0.87568" transform="rotate(26.4374 165.266 242.636)" fill="white"/>
<circle cx="161.354" cy="244.603" r="0.87568" transform="rotate(26.4374 161.354 244.603)" fill="white"/>
<circle cx="160.172" cy="241.081" r="0.87568" transform="rotate(26.4374 160.172 241.081)" fill="white"/>
<circle cx="162.909" cy="239.508" r="0.87568" transform="rotate(26.4374 162.909 239.508)" fill="white"/>
<circle cx="166.821" cy="237.542" r="0.87568" transform="rotate(26.4374 166.821 237.542)" fill="white"/>
<circle cx="171.153" cy="248.497" r="0.87568" transform="rotate(26.4374 171.153 248.497)" fill="white"/>
<circle cx="170.36" cy="244.191" r="0.87568" transform="rotate(26.4374 170.36 244.191)" fill="white"/>
<circle cx="169.567" cy="239.885" r="0.87568" transform="rotate(26.4374 169.567 239.885)" fill="white"/>
<circle cx="171.123" cy="234.791" r="0.87568" transform="rotate(26.4374 171.123 234.791)" fill="white"/>
<circle cx="175.814" cy="231.256" r="0.87568" transform="rotate(26.4374 175.814 231.256)" fill="white"/>
<circle cx="178.171" cy="234.383" r="0.87568" transform="rotate(26.4374 178.171 234.383)" fill="white"/>
<circle cx="180.527" cy="237.511" r="0.87568" transform="rotate(26.4374 180.527 237.511)" fill="white"/>
<circle cx="176.95" cy="276.3" r="0.87568" transform="rotate(164.317 176.95 276.3)" fill="white"/>
<circle cx="172.394" cy="273.032" r="0.87568" transform="rotate(164.317 172.394 273.032)" fill="white"/>
<circle cx="167.838" cy="269.763" r="0.87568" transform="rotate(164.317 167.838 269.763)" fill="white"/>
<circle cx="167.497" cy="265.311" r="0.87568" transform="rotate(164.317 167.497 265.311)" fill="white"/>
<circle cx="164.022" cy="262.649" r="0.87568" transform="rotate(164.317 164.022 262.649)" fill="white"/>
<circle cx="164.362" cy="267.101" r="0.87568" transform="rotate(164.317 164.362 267.101)" fill="white"/>
<circle cx="172.926" cy="261.968" r="0.87568" transform="rotate(164.317 172.926 261.968)" fill="white"/>
<circle cx="175.323" cy="264.024" r="0.87568" transform="rotate(164.317 175.323 264.024)" fill="white"/>
<circle cx="177.719" cy="266.08" r="0.87568" transform="rotate(164.317 177.719 266.08)" fill="white"/>
<circle cx="181.564" cy="266.819" r="0.87568" transform="rotate(164.317 181.564 266.819)" fill="white"/>
<circle cx="183.147" cy="262.736" r="0.87568" transform="rotate(164.317 183.147 262.736)" fill="white"/>
<circle cx="186.386" cy="264.556" r="0.87568" transform="rotate(164.317 186.386 264.556)" fill="white"/>
<circle cx="185.409" cy="267.558" r="0.87568" transform="rotate(164.317 185.409 267.558)" fill="white"/>
<circle cx="183.827" cy="271.641" r="0.87568" transform="rotate(164.317 183.827 271.641)" fill="white"/>
<circle cx="173.267" cy="266.42" r="0.87568" transform="rotate(164.317 173.267 266.42)" fill="white"/>
<circle cx="176.742" cy="269.082" r="0.87568" transform="rotate(164.317 176.742 269.082)" fill="white"/>
<circle cx="180.219" cy="271.745" r="0.87568" transform="rotate(164.317 180.219 271.745)" fill="white"/>
<circle cx="182.482" cy="276.566" r="0.87568" transform="rotate(164.317 182.482 276.566)" fill="white"/>
<circle cx="181.372" cy="282.335" r="0.87568" transform="rotate(164.317 181.372 282.335)" fill="white"/>
<circle cx="177.528" cy="281.595" r="0.87568" transform="rotate(164.317 177.528 281.595)" fill="white"/>
<circle cx="173.681" cy="280.856" r="0.87568" transform="rotate(164.317 173.681 280.856)" fill="white"/>
<circle cx="190.718" cy="277.62" r="0.87568" transform="rotate(-151.538 190.718 277.62)" fill="white"/>
<circle cx="189.725" cy="272.102" r="0.87568" transform="rotate(-151.538 189.725 272.102)" fill="white"/>
<circle cx="188.731" cy="266.583" r="0.87568" transform="rotate(-151.538 188.731 266.583)" fill="white"/>
<circle cx="191.588" cy="263.151" r="0.87568" transform="rotate(-151.538 191.588 263.151)" fill="white"/>
<circle cx="190.948" cy="258.82" r="0.87568" transform="rotate(-151.538 190.948 258.82)" fill="white"/>
<circle cx="188.092" cy="262.252" r="0.87568" transform="rotate(-151.538 188.092 262.252)" fill="white"/>
<circle cx="197.812" cy="264.533" r="0.87568" transform="rotate(-151.538 197.812 264.533)" fill="white"/>
<circle cx="198.1" cy="267.677" r="0.87568" transform="rotate(-151.538 198.1 267.677)" fill="white"/>
<circle cx="198.387" cy="270.821" r="0.87568" transform="rotate(-151.538 198.387 270.821)" fill="white"/>
<circle cx="200.632" cy="274.03" r="0.87568" transform="rotate(-151.538 200.632 274.03)" fill="white"/>
<circle cx="204.61" cy="272.203" r="0.87568" transform="rotate(-151.538 204.61 272.203)" fill="white"/>
<circle cx="205.668" cy="275.764" r="0.87568" transform="rotate(-151.538 205.668 275.764)" fill="white"/>
<circle cx="202.876" cy="277.239" r="0.87568" transform="rotate(-151.538 202.876 277.239)" fill="white"/>
<circle cx="198.897" cy="279.067" r="0.87568" transform="rotate(-151.538 198.897 279.067)" fill="white"/>
<circle cx="194.955" cy="267.965" r="0.87568" transform="rotate(-151.538 194.955 267.965)" fill="white"/>
<circle cx="195.596" cy="272.296" r="0.87568" transform="rotate(-151.538 195.596 272.296)" fill="white"/>
<circle cx="196.235" cy="276.627" r="0.87568" transform="rotate(-151.538 196.235 276.627)" fill="white"/>
<circle cx="194.501" cy="281.664" r="0.87568" transform="rotate(-151.538 194.501 281.664)" fill="white"/>
<circle cx="189.689" cy="285.031" r="0.87568" transform="rotate(-151.538 189.689 285.031)" fill="white"/>
<circle cx="187.443" cy="281.822" r="0.87568" transform="rotate(-151.538 187.443 281.822)" fill="white"/>
<circle cx="185.199" cy="278.613" r="0.87568" transform="rotate(-151.538 185.199 278.613)" fill="white"/>
<circle cx="165.703" cy="250.433" r="0.87568" transform="rotate(-99.0125 165.703 250.433)" fill="white"/>
<circle cx="169.479" cy="246.287" r="0.87568" transform="rotate(-99.0125 169.479 246.287)" fill="white"/>
<circle cx="173.255" cy="242.142" r="0.87568" transform="rotate(-99.0125 173.255 242.142)" fill="white"/>
<circle cx="177.716" cy="242.321" r="0.87568" transform="rotate(-99.0125 177.716 242.321)" fill="white"/>
<circle cx="180.764" cy="239.178" r="0.87568" transform="rotate(-99.0125 180.764 239.178)" fill="white"/>
<circle cx="176.303" cy="238.998" r="0.87568" transform="rotate(-99.0125 176.303 238.998)" fill="white"/>
<circle cx="180.406" cy="248.1" r="0.87568" transform="rotate(-99.0125 180.406 248.1)" fill="white"/>
<circle cx="178.086" cy="250.242" r="0.87568" transform="rotate(-99.0125 178.086 250.242)" fill="white"/>
<circle cx="175.766" cy="252.383" r="0.87568" transform="rotate(-99.0125 175.766 252.383)" fill="white"/>
<circle cx="174.584" cy="256.117" r="0.87568" transform="rotate(-99.0125 174.584 256.117)" fill="white"/>
<circle cx="178.455" cy="258.163" r="0.87568" transform="rotate(-99.0125 178.455 258.163)" fill="white"/>
<circle cx="176.273" cy="261.169" r="0.87568" transform="rotate(-99.0125 176.273 261.169)" fill="white"/>
<circle cx="173.403" cy="259.85" r="0.87568" transform="rotate(-99.0125 173.403 259.85)" fill="white"/>
<circle cx="169.532" cy="257.805" r="0.87568" transform="rotate(-99.0125 169.532 257.805)" fill="white"/>
<circle cx="175.944" cy="247.922" r="0.87568" transform="rotate(-99.0125 175.944 247.922)" fill="white"/>
<circle cx="172.897" cy="251.065" r="0.87568" transform="rotate(-99.0125 172.897 251.065)" fill="white"/>
<circle cx="169.849" cy="254.208" r="0.87568" transform="rotate(-99.0125 169.849 254.208)" fill="white"/>
<circle cx="164.797" cy="255.896" r="0.87568" transform="rotate(-99.0125 164.797 255.896)" fill="white"/>
<circle cx="159.196" cy="254.124" r="0.87568" transform="rotate(-99.0125 159.196 254.124)" fill="white"/>
<circle cx="160.377" cy="250.391" r="0.87568" transform="rotate(-99.0125 160.377 250.391)" fill="white"/>
<circle cx="161.558" cy="246.657" r="0.87568" transform="rotate(-99.0125 161.558 246.657)" fill="white"/>
<circle cx="659.704" cy="42.7279" r="0.87568" transform="rotate(-79.2745 659.704 42.7279)" fill="white"/>
<circle cx="664.657" cy="40.1014" r="0.87568" transform="rotate(-79.2745 664.657 40.1014)" fill="white"/>
<circle cx="669.611" cy="37.4745" r="0.87568" transform="rotate(-79.2745 669.611 37.4745)" fill="white"/>
<circle cx="673.75" cy="39.1498" r="0.87568" transform="rotate(-79.2745 673.75 39.1498)" fill="white"/>
<circle cx="677.681" cy="37.2206" r="0.87568" transform="rotate(-79.2745 677.681 37.2206)" fill="white"/>
<circle cx="673.542" cy="35.5453" r="0.87568" transform="rotate(-79.2745 673.542 35.5453)" fill="white"/>
<circle cx="674.33" cy="45.4984" r="0.87568" transform="rotate(-79.2745 674.33 45.4984)" fill="white"/>
<circle cx="671.423" cy="46.7303" r="0.87568" transform="rotate(-79.2745 671.423 46.7303)" fill="white"/>
<circle cx="668.516" cy="47.9623" r="0.87568" transform="rotate(-79.2745 668.516 47.9623)" fill="white"/>
<circle cx="666.143" cy="51.078" r="0.87568" transform="rotate(-79.2745 666.143 51.078)" fill="white"/>
<circle cx="669.096" cy="54.3109" r="0.87568" transform="rotate(-79.2745 669.096 54.3109)" fill="white"/>
<circle cx="666.026" cy="56.4032" r="0.87568" transform="rotate(-79.2745 666.026 56.4032)" fill="white"/>
<circle cx="663.77" cy="54.1932" r="0.87568" transform="rotate(-79.2745 663.77 54.1932)" fill="white"/>
<circle cx="660.818" cy="50.9603" r="0.87568" transform="rotate(-79.2745 660.818 50.9603)" fill="white"/>
<circle cx="670.191" cy="43.8231" r="0.87568" transform="rotate(-79.2745 670.191 43.8231)" fill="white"/>
<circle cx="666.261" cy="45.7523" r="0.87568" transform="rotate(-79.2745 666.261 45.7523)" fill="white"/>
<circle cx="662.33" cy="47.6815" r="0.87568" transform="rotate(-79.2745 662.33 47.6815)" fill="white"/>
<circle cx="657.005" cy="47.5643" r="0.87568" transform="rotate(-79.2745 657.005 47.5643)" fill="white"/>
<circle cx="652.332" cy="44.0052" r="0.87568" transform="rotate(-79.2745 652.332 44.0052)" fill="white"/>
<circle cx="654.704" cy="40.89" r="0.87568" transform="rotate(-79.2745 654.704 40.89)" fill="white"/>
<circle cx="657.077" cy="37.7743" r="0.87568" transform="rotate(-79.2745 657.077 37.7743)" fill="white"/>
<circle cx="652.398" cy="54.4716" r="0.87568" transform="rotate(-35.1295 652.398 54.4716)" fill="white"/>
<circle cx="657.782" cy="56.037" r="0.87568" transform="rotate(-35.1295 657.782 56.037)" fill="white"/>
<circle cx="663.166" cy="57.6024" r="0.87568" transform="rotate(-35.1295 663.166 57.6024)" fill="white"/>
<circle cx="664.969" cy="61.6874" r="0.87568" transform="rotate(-35.1295 664.969 61.6874)" fill="white"/>
<circle cx="669.133" cy="63.0404" r="0.87568" transform="rotate(-35.1295 669.133 63.0404)" fill="white"/>
<circle cx="667.33" cy="58.9555" r="0.87568" transform="rotate(-35.1295 667.33 58.9555)" fill="white"/>
<circle cx="660.964" cy="66.6469" r="0.87568" transform="rotate(-35.1295 660.964 66.6469)" fill="white"/>
<circle cx="658.02" cy="65.5062" r="0.87568" transform="rotate(-35.1295 658.02 65.5062)" fill="white"/>
<circle cx="655.076" cy="64.3651" r="0.87568" transform="rotate(-35.1295 655.076 64.3651)" fill="white"/>
<circle cx="651.203" cy="64.9486" r="0.87568" transform="rotate(-35.1295 651.203 64.9486)" fill="white"/>
<circle cx="651.071" cy="69.3246" r="0.87568" transform="rotate(-35.1295 651.071 69.3246)" fill="white"/>
<circle cx="647.411" cy="68.6879" r="0.87568" transform="rotate(-35.1295 647.411 68.6879)" fill="white"/>
<circle cx="647.331" cy="65.5316" r="0.87568" transform="rotate(-35.1295 647.331 65.5316)" fill="white"/>
<circle cx="647.464" cy="61.1552" r="0.87568" transform="rotate(-35.1295 647.464 61.1552)" fill="white"/>
<circle cx="659.161" cy="62.5619" r="0.87568" transform="rotate(-35.1295 659.161 62.5619)" fill="white"/>
<circle cx="654.996" cy="61.2089" r="0.87568" transform="rotate(-35.1295 654.996 61.2089)" fill="white"/>
<circle cx="650.832" cy="59.8558" r="0.87568" transform="rotate(-35.1295 650.832 59.8558)" fill="white"/>
<circle cx="647.093" cy="56.0624" r="0.87568" transform="rotate(-35.1295 647.093 56.0624)" fill="white"/>
<circle cx="646.218" cy="50.2538" r="0.87568" transform="rotate(-35.1295 646.218 50.2538)" fill="white"/>
<circle cx="650.091" cy="49.6708" r="0.87568" transform="rotate(-35.1295 650.091 49.6708)" fill="white"/>
<circle cx="653.963" cy="49.0873" r="0.87568" transform="rotate(-35.1295 653.963 49.0873)" fill="white"/>
<circle cx="687.875" cy="44.1604" r="0.87568" transform="rotate(17.3961 687.875 44.1604)" fill="white"/>
<circle cx="689.908" cy="49.3855" r="0.87568" transform="rotate(17.3961 689.908 49.3855)" fill="white"/>
<circle cx="691.941" cy="54.6111" r="0.87568" transform="rotate(17.3961 691.941 54.6111)" fill="white"/>
<circle cx="689.796" cy="58.5276" r="0.87568" transform="rotate(17.3961 689.796 58.5276)" fill="white"/>
<circle cx="691.256" cy="62.6555" r="0.87568" transform="rotate(17.3961 691.256 62.6555)" fill="white"/>
<circle cx="693.401" cy="58.739" r="0.87568" transform="rotate(17.3961 693.401 58.739)" fill="white"/>
<circle cx="683.423" cy="58.366" r="0.87568" transform="rotate(17.3961 683.423 58.366)" fill="white"/>
<circle cx="682.538" cy="55.3357" r="0.87568" transform="rotate(17.3961 682.538 55.3357)" fill="white"/>
<circle cx="681.652" cy="52.305" r="0.87568" transform="rotate(17.3961 681.652 52.305)" fill="white"/>
<circle cx="678.834" cy="49.5867" r="0.87568" transform="rotate(17.3961 678.834 49.5867)" fill="white"/>
<circle cx="675.279" cy="52.1438" r="0.87568" transform="rotate(17.3961 675.279 52.1438)" fill="white"/>
<circle cx="673.557" cy="48.8513" r="0.87568" transform="rotate(17.3961 673.557 48.8513)" fill="white"/>
<circle cx="676.014" cy="46.8679" r="0.87568" transform="rotate(17.3961 676.014 46.8679)" fill="white"/>
<circle cx="679.568" cy="44.3113" r="0.87568" transform="rotate(17.3961 679.568 44.3113)" fill="white"/>
<circle cx="685.568" cy="54.45" r="0.87568" transform="rotate(17.3961 685.568 54.45)" fill="white"/>
<circle cx="684.109" cy="50.3216" r="0.87568" transform="rotate(17.3961 684.109 50.3216)" fill="white"/>
<circle cx="682.649" cy="46.1941" r="0.87568" transform="rotate(17.3961 682.649 46.1941)" fill="white"/>
<circle cx="683.384" cy="40.9182" r="0.87568" transform="rotate(17.3961 683.384 40.9182)" fill="white"/>
<circle cx="687.461" cy="36.6897" r="0.87568" transform="rotate(17.3961 687.461 36.6897)" fill="white"/>
<circle cx="690.281" cy="39.4085" r="0.87568" transform="rotate(17.3961 690.281 39.4085)" fill="white"/>
<circle cx="693.1" cy="42.1267" r="0.87568" transform="rotate(17.3961 693.1 42.1267)" fill="white"/>
<circle cx="616.434" cy="44.2464" r="0.87568" transform="rotate(-54.7923 616.434 44.2464)" fill="white"/>
<circle cx="622.032" cy="43.909" r="0.87568" transform="rotate(-54.7923 622.032 43.909)" fill="white"/>
<circle cx="627.629" cy="43.5711" r="0.87568" transform="rotate(-54.7923 627.629 43.5711)" fill="white"/>
<circle cx="630.701" cy="46.8109" r="0.87568" transform="rotate(-54.7923 630.701 46.8109)" fill="white"/>
<circle cx="635.078" cy="46.6839" r="0.87568" transform="rotate(-54.7923 635.078 46.6839)" fill="white"/>
<circle cx="632.005" cy="43.4442" r="0.87568" transform="rotate(-54.7923 632.005 43.4442)" fill="white"/>
<circle cx="628.598" cy="52.8294" r="0.87568" transform="rotate(-54.7923 628.598 52.8294)" fill="white"/>
<circle cx="625.442" cy="52.7454" r="0.87568" transform="rotate(-54.7923 625.442 52.7454)" fill="white"/>
<circle cx="622.286" cy="52.6619" r="0.87568" transform="rotate(-54.7923 622.286 52.6619)" fill="white"/>
<circle cx="618.835" cy="54.514" r="0.87568" transform="rotate(-54.7923 618.835 54.514)" fill="white"/>
<circle cx="620.182" cy="58.68" r="0.87568" transform="rotate(-54.7923 620.182 58.68)" fill="white"/>
<circle cx="616.521" cy="59.3118" r="0.87568" transform="rotate(-54.7923 616.521 59.3118)" fill="white"/>
<circle cx="615.384" cy="56.3665" r="0.87568" transform="rotate(-54.7923 615.384 56.3665)" fill="white"/>
<circle cx="614.037" cy="52.2005" r="0.87568" transform="rotate(-54.7923 614.037 52.2005)" fill="white"/>
<circle cx="625.525" cy="49.5892" r="0.87568" transform="rotate(-54.7923 625.525 49.5892)" fill="white"/>
<circle cx="621.148" cy="49.7161" r="0.87568" transform="rotate(-54.7923 621.148 49.7161)" fill="white"/>
<circle cx="616.772" cy="49.8436" r="0.87568" transform="rotate(-54.7923 616.772 49.8436)" fill="white"/>
<circle cx="611.974" cy="47.5296" r="0.87568" transform="rotate(-54.7923 611.974 47.5296)" fill="white"/>
<circle cx="609.196" cy="42.3538" r="0.87568" transform="rotate(-54.7923 609.196 42.3538)" fill="white"/>
<circle cx="612.646" cy="40.5018" r="0.87568" transform="rotate(-54.7923 612.646 40.5018)" fill="white"/>
<circle cx="616.097" cy="38.6497" r="0.87568" transform="rotate(-54.7923 616.097 38.6497)" fill="white"/>
<circle cx="605.989" cy="52.1124" r="0.87568" transform="rotate(1.87706 605.989 52.1124)" fill="white"/>
<circle cx="609.346" cy="56.6031" r="0.87568" transform="rotate(1.87706 609.346 56.6031)" fill="white"/>
<circle cx="612.704" cy="61.0938" r="0.87568" transform="rotate(1.87706 612.704 61.0938)" fill="white"/>
<circle cx="611.685" cy="65.4415" r="0.87568" transform="rotate(1.87706 611.685 65.4415)" fill="white"/>
<circle cx="614.196" cy="69.0284" r="0.87568" transform="rotate(1.87706 614.196 69.0284)" fill="white"/>
<circle cx="615.215" cy="64.6807" r="0.87568" transform="rotate(1.87706 615.215 64.6807)" fill="white"/>
<circle cx="605.501" cy="66.9908" r="0.87568" transform="rotate(1.87706 605.501 66.9908)" fill="white"/>
<circle cx="603.837" cy="64.3077" r="0.87568" transform="rotate(1.87706 603.837 64.3077)" fill="white"/>
<circle cx="602.173" cy="61.6251" r="0.87568" transform="rotate(1.87706 602.173 61.6251)" fill="white"/>
<circle cx="598.729" cy="59.7598" r="0.87568" transform="rotate(1.87706 598.729 59.7598)" fill="white"/>
<circle cx="595.989" cy="63.1744" r="0.87568" transform="rotate(1.87706 595.989 63.1744)" fill="white"/>
<circle cx="593.449" cy="60.463" r="0.87568" transform="rotate(1.87706 593.449 60.463)" fill="white"/>
<circle cx="595.286" cy="57.8946" r="0.87568" transform="rotate(1.87706 595.286 57.8946)" fill="white"/>
<circle cx="598.026" cy="54.4801" r="0.87568" transform="rotate(1.87706 598.026 54.4801)" fill="white"/>
<circle cx="606.52" cy="62.6436" r="0.87568" transform="rotate(1.87706 606.52 62.6436)" fill="white"/>
<circle cx="604.009" cy="59.0567" r="0.87568" transform="rotate(1.87706 604.009 59.0567)" fill="white"/>
<circle cx="601.498" cy="55.4698" r="0.87568" transform="rotate(1.87706 601.498 55.4698)" fill="white"/>
<circle cx="600.795" cy="50.19" r="0.87568" transform="rotate(1.87706 600.795 50.19)" fill="white"/>
<circle cx="603.593" cy="45.0245" r="0.87568" transform="rotate(1.87706 603.593 45.0245)" fill="white"/>
<circle cx="607.036" cy="46.8897" r="0.87568" transform="rotate(1.87706 607.036 46.8897)" fill="white"/>
<circle cx="610.479" cy="48.755" r="0.87568" transform="rotate(1.87706 610.479 48.755)" fill="white"/>
<circle cx="641.479" cy="57.2244" r="0.87568" transform="rotate(41.8783 641.479 57.2244)" fill="white"/>
<circle cx="641.164" cy="62.8225" r="0.87568" transform="rotate(41.8783 641.164 62.8225)" fill="white"/>
<circle cx="640.85" cy="68.4206" r="0.87568" transform="rotate(41.8783 640.85 68.4206)" fill="white"/>
<circle cx="637.274" cy="71.0964" r="0.87568" transform="rotate(41.8783 637.274 71.0964)" fill="white"/>
<circle cx="636.893" cy="75.4577" r="0.87568" transform="rotate(41.8783 636.893 75.4577)" fill="white"/>
<circle cx="640.467" cy="72.7825" r="0.87568" transform="rotate(41.8783 640.467 72.7825)" fill="white"/>
<circle cx="631.541" cy="68.3083" r="0.87568" transform="rotate(41.8783 631.541 68.3083)" fill="white"/>
<circle cx="631.991" cy="65.1833" r="0.87568" transform="rotate(41.8783 631.991 65.1833)" fill="white"/>
<circle cx="632.44" cy="62.0578" r="0.87568" transform="rotate(41.8783 632.44 62.0578)" fill="white"/>
<circle cx="631.002" cy="58.4158" r="0.87568" transform="rotate(41.8783 631.002 58.4158)" fill="white"/>
<circle cx="626.708" cy="59.2703" r="0.87568" transform="rotate(41.8783 626.708 59.2703)" fill="white"/>
<circle cx="626.505" cy="55.5603" r="0.87568" transform="rotate(41.8783 626.505 55.5603)" fill="white"/>
<circle cx="629.563" cy="54.7737" r="0.87568" transform="rotate(41.8783 629.563 54.7737)" fill="white"/>
<circle cx="633.857" cy="53.9192" r="0.87568" transform="rotate(41.8783 633.857 53.9192)" fill="white"/>
<circle cx="635.116" cy="65.633" r="0.87568" transform="rotate(41.8783 635.116 65.633)" fill="white"/>
<circle cx="635.498" cy="61.2712" r="0.87568" transform="rotate(41.8783 635.498 61.2712)" fill="white"/>
<circle cx="635.881" cy="56.9094" r="0.87568" transform="rotate(41.8783 635.881 56.9094)" fill="white"/>
<circle cx="638.736" cy="52.4128" r="0.87568" transform="rotate(41.8783 638.736 52.4128)" fill="white"/>
<circle cx="644.199" cy="50.2546" r="0.87568" transform="rotate(41.8783 644.199 50.2546)" fill="white"/>
<circle cx="645.638" cy="53.8967" r="0.87568" transform="rotate(41.8783 645.638 53.8967)" fill="white"/>
<circle cx="647.077" cy="57.5393" r="0.87568" transform="rotate(41.8783 647.077 57.5393)" fill="white"/>
<circle cx="695.662" cy="80.9966" r="0.87568" transform="rotate(155.275 695.662 80.9966)" fill="white"/>
<circle cx="690.649" cy="78.4844" r="0.87568" transform="rotate(155.275 690.649 78.4844)" fill="white"/>
<circle cx="685.635" cy="75.9722" r="0.87568" transform="rotate(155.275 685.635 75.9722)" fill="white"/>
<circle cx="684.599" cy="71.6294" r="0.87568" transform="rotate(155.275 684.599 71.6294)" fill="white"/>
<circle cx="680.748" cy="69.5464" r="0.87568" transform="rotate(155.275 680.748 69.5464)" fill="white"/>
<circle cx="681.784" cy="73.8897" r="0.87568" transform="rotate(155.275 681.784 73.8897)" fill="white"/>
<circle cx="689.435" cy="67.4747" r="0.87568" transform="rotate(155.275 689.435 67.4747)" fill="white"/>
<circle cx="692.124" cy="69.1285" r="0.87568" transform="rotate(155.275 692.124 69.1285)" fill="white"/>
<circle cx="694.814" cy="70.7818" r="0.87568" transform="rotate(155.275 694.814 70.7818)" fill="white"/>
<circle cx="698.728" cy="70.9078" r="0.87568" transform="rotate(155.275 698.728 70.9078)" fill="white"/>
<circle cx="699.649" cy="66.6275" r="0.87568" transform="rotate(155.275 699.649 66.6275)" fill="white"/>
<circle cx="703.134" cy="67.9146" r="0.87568" transform="rotate(155.275 703.134 67.9146)" fill="white"/>
<circle cx="702.642" cy="71.0337" r="0.87568" transform="rotate(155.275 702.642 71.0337)" fill="white"/>
<circle cx="701.721" cy="75.314" r="0.87568" transform="rotate(155.275 701.721 75.314)" fill="white"/>
<circle cx="690.471" cy="71.8179" r="0.87568" transform="rotate(155.275 690.471 71.8179)" fill="white"/>
<circle cx="694.322" cy="73.9009" r="0.87568" transform="rotate(155.275 694.322 73.9009)" fill="white"/>
<circle cx="698.173" cy="75.9835" r="0.87568" transform="rotate(155.275 698.173 75.9835)" fill="white"/>
<circle cx="701.166" cy="80.3897" r="0.87568" transform="rotate(155.275 701.166 80.3897)" fill="white"/>
<circle cx="700.978" cy="86.2608" r="0.87568" transform="rotate(155.275 700.978 86.2608)" fill="white"/>
<circle cx="697.064" cy="86.1353" r="0.87568" transform="rotate(155.275 697.064 86.1353)" fill="white"/>
<circle cx="693.149" cy="86.0093" r="0.87568" transform="rotate(155.275 693.149 86.0093)" fill="white"/>
<circle cx="709.465" cy="80.1359" r="0.87568" transform="rotate(-160.58 709.465 80.1359)" fill="white"/>
<circle cx="707.618" cy="74.842" r="0.87568" transform="rotate(-160.58 707.618 74.842)" fill="white"/>
<circle cx="705.77" cy="69.548" r="0.87568" transform="rotate(-160.58 705.77 69.548)" fill="white"/>
<circle cx="708.051" cy="65.7101" r="0.87568" transform="rotate(-160.58 708.051 65.7101)" fill="white"/>
<circle cx="706.739" cy="61.5329" r="0.87568" transform="rotate(-160.58 706.739 61.5329)" fill="white"/>
<circle cx="704.457" cy="65.3713" r="0.87568" transform="rotate(-160.58 704.457 65.3713)" fill="white"/>
<circle cx="714.415" cy="66.0964" r="0.87568" transform="rotate(-160.58 714.415 66.0964)" fill="white"/>
<circle cx="715.193" cy="69.1564" r="0.87568" transform="rotate(-160.58 715.193 69.1564)" fill="white"/>
<circle cx="715.971" cy="72.2165" r="0.87568" transform="rotate(-160.58 715.971 72.2165)" fill="white"/>
<circle cx="718.693" cy="75.0324" r="0.87568" transform="rotate(-160.58 718.693 75.0324)" fill="white"/>
<circle cx="722.334" cy="72.6027" r="0.87568" transform="rotate(-160.58 722.334 72.6027)" fill="white"/>
<circle cx="723.938" cy="75.9538" r="0.87568" transform="rotate(-160.58 723.938 75.9538)" fill="white"/>
<circle cx="721.414" cy="77.8488" r="0.87568" transform="rotate(-160.58 721.414 77.8488)" fill="white"/>
<circle cx="717.771" cy="80.279" r="0.87568" transform="rotate(-160.58 717.771 80.279)" fill="white"/>
<circle cx="712.133" cy="69.9342" r="0.87568" transform="rotate(-160.58 712.133 69.9342)" fill="white"/>
<circle cx="713.446" cy="74.1115" r="0.87568" transform="rotate(-160.58 713.446 74.1115)" fill="white"/>
<circle cx="714.759" cy="78.2883" r="0.87568" transform="rotate(-160.58 714.759 78.2883)" fill="white"/>
<circle cx="713.837" cy="83.5348" r="0.87568" transform="rotate(-160.58 713.837 83.5348)" fill="white"/>
<circle cx="709.614" cy="87.6164" r="0.87568" transform="rotate(-160.58 709.614 87.6164)" fill="white"/>
<circle cx="706.892" cy="84.8" r="0.87568" transform="rotate(-160.58 706.892 84.8)" fill="white"/>
<circle cx="704.171" cy="81.9836" r="0.87568" transform="rotate(-160.58 704.171 81.9836)" fill="white"/>
<circle cx="680.49" cy="57.2169" r="0.87568" transform="rotate(-108.054 680.49 57.2169)" fill="white"/>
<circle cx="683.567" cy="52.5298" r="0.87568" transform="rotate(-108.054 683.567 52.5298)" fill="white"/>
<circle cx="686.644" cy="47.8428" r="0.87568" transform="rotate(-108.054 686.644 47.8428)" fill="white"/>
<circle cx="691.079" cy="47.3184" r="0.87568" transform="rotate(-108.054 691.079 47.3184)" fill="white"/>
<circle cx="693.594" cy="43.7349" r="0.87568" transform="rotate(-108.054 693.594 43.7349)" fill="white"/>
<circle cx="689.16" cy="44.2593" r="0.87568" transform="rotate(-108.054 689.16 44.2593)" fill="white"/>
<circle cx="694.643" cy="52.6036" r="0.87568" transform="rotate(-108.054 694.643 52.6036)" fill="white"/>
<circle cx="692.688" cy="55.0826" r="0.87568" transform="rotate(-108.054 692.688 55.0826)" fill="white"/>
<circle cx="690.733" cy="57.5621" r="0.87568" transform="rotate(-108.054 690.733 57.5621)" fill="white"/>
<circle cx="690.154" cy="61.4351" r="0.87568" transform="rotate(-108.054 690.154 61.4351)" fill="white"/>
<circle cx="694.298" cy="62.8472" r="0.87568" transform="rotate(-108.054 694.298 62.8472)" fill="white"/>
<circle cx="692.615" cy="66.1587" r="0.87568" transform="rotate(-108.054 692.615 66.1587)" fill="white"/>
<circle cx="689.574" cy="65.3082" r="0.87568" transform="rotate(-108.054 689.574 65.3082)" fill="white"/>
<circle cx="685.43" cy="63.896" r="0.87568" transform="rotate(-108.054 685.43 63.896)" fill="white"/>
<circle cx="690.21" cy="53.128" r="0.87568" transform="rotate(-108.054 690.21 53.128)" fill="white"/>
<circle cx="687.693" cy="56.711" r="0.87568" transform="rotate(-108.054 687.693 56.711)" fill="white"/>
<circle cx="685.176" cy="60.294" r="0.87568" transform="rotate(-108.054 685.176 60.294)" fill="white"/>
<circle cx="680.453" cy="62.7554" r="0.87568" transform="rotate(-108.054 680.453 62.7554)" fill="white"/>
<circle cx="674.643" cy="61.8858" r="0.87568" transform="rotate(-108.054 674.643 61.8858)" fill="white"/>
<circle cx="675.223" cy="58.0127" r="0.87568" transform="rotate(-108.054 675.223 58.0127)" fill="white"/>
<circle cx="675.802" cy="54.1397" r="0.87568" transform="rotate(-108.054 675.802 54.1397)" fill="white"/>
</svg>
