<svg width="19" height="20" viewBox="0 0 19 20" fill="none" xmlns="http://www.w3.org/2000/svg">
<path d="M8 18.9999C4.58172 18.9999 1 16.4182 1 11.9999C1 8.87447 3.15837 4.77634 6.90549 1.80397C7.54774 1.29451 8.45226 1.29451 9.09451 1.80397C11.2608 3.52239 12.8961 5.61714 13.8904 7.68261M8 18.9999C8.33294 18.9999 8.66742 18.9754 9 18.9272M8 18.9999C9.01851 18.9999 10.0515 18.7708 11 18.3321M7.5 14.4999C6.11929 14.4999 5 13.3807 5 11.9999M15 11.4999V14.4999M15 14.4999V17.4999M15 14.4999H12M15 14.4999H18" stroke="#18181B" stroke-width="1.5" stroke-linecap="round" stroke-linejoin="round"/>
</svg>
