<svg width="36" height="36" viewBox="0 0 36 36" fill="none" xmlns="http://www.w3.org/2000/svg">
<path d="M10.5 21H18M31.3587 15H4.64136M31.3587 15C31.1065 12.3699 30.5532 10.3688 30 10C29.25 9.5 24 9 18 9C12 9 6.75 9.5 6 10C5.44678 10.3688 4.89357 12.3699 4.64136 15M31.3587 15C31.4484 15.9355 31.5 16.9505 31.5 18C31.5 22 30.75 25.5 30 26C29.25 26.5 24 27 18 27C12 27 6.75 26.5 6 26C5.25 25.5 4.5 22 4.5 18C4.5 16.9505 4.55165 15.9355 4.64136 15" stroke="#18181B" stroke-width="1.5" stroke-linecap="round" stroke-linejoin="round"/>
</svg>
